<?xml version="1.0" standalone="no"?>
<!DOCTYPE svg PUBLIC "-//W3C//DTD SVG 1.1//EN" "http://www.w3.org/Graphics/SVG/1.1/DTD/svg11.dtd" >
<svg xmlns="http://www.w3.org/2000/svg">
<metadata></metadata>
<defs>
<font id="baveuseregular" horiz-adv-x="1531" >
<font-face units-per-em="2048" ascent="1608" descent="-440" />
<missing-glyph horiz-adv-x="575" />
<glyph horiz-adv-x="2048" />
<glyph horiz-adv-x="2048" />
<glyph unicode="&#xd;" horiz-adv-x="2048" />
<glyph horiz-adv-x="555" />
<glyph unicode=" "  horiz-adv-x="575" />
<glyph unicode="&#x09;" horiz-adv-x="575" />
<glyph unicode="&#xa0;" horiz-adv-x="575" />
<glyph unicode="!" horiz-adv-x="534" d="M47 1532q180 18 297 18q45 0 127 -4q-50 -627 -76 -1167q-77 -14 -200 -14q-103 674 -148 1167zM88 -4l4 250q134 0 389 -23q-7 -101 -30 -256q-146 5 -363 29z" />
<glyph unicode="&#x22;" horiz-adv-x="802" d="M61 1614q122 8 187 8q81 0 141 -8q0 -205 -45 -557q-99 10 -192 45q-42 279 -91 512zM463 1104q10 157 10 282q0 127 -8 228q77 6 153 6q60 0 119 -6q-11 -262 -63 -516q-50 -4 -78 -4q-58 0 -133 10z" />
<glyph unicode="#" horiz-adv-x="1144" d="M31 1200l172 -16v221q61 12 188 16l17 -258l210 2q5 173 13 256q173 0 317 -26q-15 -100 -22 -209l151 2l17 -246h-174v-242l170 7q0 -14 1 -40t1 -38q0 -95 -17 -211l-160 14l-6 -166q-92 -14 -207 -14v223l-213 12q15 -144 15 -256q-205 0 -307 23l8 180h-144 q-18 103 -18 275l160 -9v244l-156 -4zM416 903q0 -116 37 -264q63 -18 151 -18q39 0 117 8q-19 234 -19 348q-75 16 -141 16q-76 0 -141 -16q-4 -50 -4 -74z" />
<glyph unicode="$" horiz-adv-x="1134" d="M59 909q0 191 116.5 292t346.5 104q0 141 -8 221q79 20 168 20q6 -59 6 -110q0 -66 -6 -131q155 14 389 14q-6 -261 -35 -457q-149 30 -336 37q0 -92 -4 -139h33q182 0 265 -61.5t83 -186.5q0 -141 -100 -211.5t-328 -79.5l8 -168q-74 -14 -161 -14v190q-39 -2 -115 -2 q-139 0 -301 13q20 157 53 256q15 -2 64 -8t69 -8.5t62 -7t69 -6.5t63 -3.5t68 -1.5q0 92 -6 137q-25 -2 -69 -2q-194 0 -294 79t-100 234zM397 823q0 -68 162 -71q0 39 -4 153q-158 -9 -158 -82zM674 610q8 -47 8 -159h8q104 0 113 81v11q0 67 -129 67z" />
<glyph unicode="%" horiz-adv-x="1304" d="M61 1200q0 175 89 246q37 29 86.5 37t195.5 8q94 0 147.5 -63.5t53.5 -178.5q0 -228 -8 -334l225 592q62 9 117 9q79 0 221 -23l-473 -879q89 66 227 66q114 0 180.5 -48.5t102.5 -180.5q10 -65 10 -234q0 -110 -68 -177t-157 -67h-119q-58 0 -100 22.5t-66.5 57.5 t-39 88t-19 103.5t-4.5 115.5q0 42 2 62l-211 -465q-29 -4 -80 -4q-100 0 -174 31l389 854q-88 -101 -168 -101q-49 0 -80.5 1t-67 5t-57 11t-45.5 19.5t-37.5 30t-27.5 43.5t-21 58.5t-13 77.5t-8 97.5t-2 119.5zM207 954q0 -98 141 -98q39 0 73.5 8t63.5 34t29 67 t-36.5 66.5t-106.5 25.5q-78 0 -121 -30t-43 -73zM809 160q0 -97 133 -97q86 0 120 24.5t34 86.5q0 39 -40.5 63.5t-84.5 24.5q-75 0 -118.5 -30t-43.5 -72z" />
<glyph unicode="&#x26;" horiz-adv-x="1361" d="M78 508q0 62 13 122.5t39 115.5t72.5 94t106.5 51q-120 169 -192 328q-13 207 -15 276q637 -12 953 -37q39 -204 49 -493q-282 20 -424 20q-117 0 -174 -4q143 -165 311 -307q26 29 49 88q117 12 236 12q88 0 182 -6q-153 -209 -340 -387q158 -191 369 -379 q-251 -45 -447 -47q-47 49 -94 113q-101 -107 -250 -107q-444 0 -444 547zM309 459q0 -57 19.5 -84t68.5 -39q119 -27 232 -33q-105 121 -197 260q-123 0 -123 -104z" />
<glyph unicode="'" horiz-adv-x="430" d="M51 1614q139 22 228 22q30 0 92 -4q0 -297 -41 -590q-20 -2 -62 -2q-58 0 -123 9q-43 344 -94 565z" />
<glyph unicode="(" horiz-adv-x="585" d="M160 596q0 352 4 539t21 313.5t40 176.5t70 101q61 66 178 66q23 0 51 -4q0 -153 -12 -232q-65 9 -90 9q-39 -429 -39 -916q0 -381 27 -780q73 0 108 4q0 -66 -4 -188q-25 -4 -96 -4q-112 0 -172 100q-50 82 -68 239t-18 576z" />
<glyph unicode=")" horiz-adv-x="587" d="M47 1794q41 8 113 8q111 0 186 -88q52 -63 72 -245t20 -646q0 -129 -3 -242.5t-6.5 -186t-10 -146.5t-10.5 -106t-11 -83t-8 -61q-24 -171 -86.5 -241t-165.5 -70q-28 0 -74 4q0 125 17 200q58 -8 90 -8q6 0 17 1t16 1q12 375 12 682q0 377 -15.5 641t-39.5 367 q-41 10 -101 10q-12 136 -12 209z" />
<glyph unicode="*" horiz-adv-x="1490" d="M27 829q322 58 581 154q-165 152 -362 268q33 46 192 174.5t193 128.5q48 -197 100 -538q127 376 246 633q193 -65 430 -240q-245 -181 -473 -405q258 -21 512 -21q-36 -266 -100 -471q-272 141 -508 322q91 -318 168 -680q-86 -4 -129 -4q-148 0 -285 20q58 347 90 653 q-201 -196 -492 -409q-105 171 -163 415z" />
<glyph unicode="+" horiz-adv-x="1120" d="M39 840q226 -16 420 -19q-3 58 -23 402q143 14 248 14q10 -238 10 -418q253 4 377 10q10 -63 10 -196q-195 -21 -391 -33q-3 -200 -18 -397q-88 -8 -197 -8q-4 262 -8 397q-140 -4 -209 -4q-71 0 -207 4q-9 109 -12 248z" />
<glyph unicode="," horiz-adv-x="516" d="M45 -23q0 147 12 238q243 21 416 21q0 -102 -20 -228q-108 -154 -240 -305q-61 45 -111 104q84 103 129 181q-52 -7 -186 -11z" />
<glyph unicode="-" horiz-adv-x="749" d="M70 877q383 0 604 -11q-9 -198 -43 -354q-180 8 -545 8q-16 153 -16 357z" />
<glyph unicode="." horiz-adv-x="509" d="M61 211q162 15 392 22q0 -108 -19 -264q-175 -12 -364 -12z" />
<glyph unicode="/" horiz-adv-x="708" d="M10 -45q236 832 518 1606q68 0 166 -15q-269 -1013 -403 -1609q-166 4 -281 18z" />
<glyph unicode="0" horiz-adv-x="1564" d="M70 756q0 247 13 349t69 202q100 184 323 184q305 0 643 -23q180 -14 267.5 -111t87.5 -288q0 -251 -56 -688q-25 -185 -112 -284.5t-248 -119.5q-164 -22 -606 -22q-169 0 -266 118t-107 349q-8 188 -8 334zM471 954q0 -378 14 -612q305 -24 723 -35q27 428 27 619 q-395 28 -764 28z" />
<glyph unicode="1" horiz-adv-x="751" d="M23 1249q131 165 249 267q196 0 408 -41q-15 -942 -55 -1487q-115 -23 -328 -23q25 533 25 770q0 42 -5 242q-23 -8 -49.5 -25t-38.5 -26.5t-45 -36.5q-97 169 -161 360z" />
<glyph unicode="2" horiz-adv-x="1441" d="M72 -63q0 286 18.5 430.5t63.5 214.5q108 163 385 163q101 0 306 -7t247 -7q46 0 68 24t22 79q0 54 -21.5 78t-66.5 24q-278 0 -863 -51q-50 313 -53 598q195 10 350 10q112 0 346 -8q250 -12 373 -128t123 -343q0 -132 -27 -228t-76 -151.5t-111 -81t-140 -25.5 q-94 0 -301 5.5t-250 5.5q-73 0 -111.5 -60t-38.5 -164q625 0 1057 43q-22 -182 -76 -376q-193 -21 -424 -31.5t-380 -12t-420 -1.5z" />
<glyph unicode="3" horiz-adv-x="1353" d="M70 913q4 359 26 603q613 -16 1166 -80q0 -200 -27 -387q-157 -101 -424 -211q58 4 78 4q186 0 283.5 -81.5t97.5 -264.5q0 -281 -131 -400q-41 -37 -96 -62t-124.5 -41.5t-190 -27t-251.5 -16t-350 -10.5q-25 188 -31 397q203 -1 518.5 8.5t407.5 15.5q53 5 73.5 26.5 t20.5 72.5q0 38 -21 56t-69 24q-144 18 -313 18q-117 0 -234 -6q-18 80 -18 180q0 35 2 55q218 101 313 166q-43 2 -135 2q-263 0 -571 -41z" />
<glyph unicode="4" horiz-adv-x="1191" d="M37 449q264 494 659 1075l328 -35q12 -273 12 -545q0 -217 -12 -442q43 3 92 10q15 -105 19 -350q-49 -6 -105 -6q-11 -164 -12 -172q-106 -17 -371 -17q17 109 25 201q-311 -28 -609 -37zM459 473q29 -2 86 -2q114 0 319 25q27 220 27 436q-226 -191 -432 -459z" />
<glyph unicode="5" horiz-adv-x="1419" d="M72 1511q658 -3 1226 -55q21 -244 21 -545q-237 15 -473 15q-187 0 -498 -15q-13 -79 -20 -172q246 9 583 9q239 0 340 -81t101 -243q0 -208 -110.5 -329.5t-326.5 -121.5q-244 0 -733 45q-32 161 -39 332q119 -4 361 -4q288 0 583 12q111 6 111 93q0 50 -22.5 73 t-71.5 23q-449 0 -981 -27q-27 305 -51 991z" />
<glyph unicode="6" horiz-adv-x="1486" d="M74 977q0 252 141.5 386t409.5 134q377 0 714 -12q0 -21 1 -62t1 -61q0 -194 -22 -449q-282 17 -621 17q-56 0 -93 -2t-76 -9t-61 -20t-36 -36t-14 -56q0 -23 6 -47q89 33 188.5 42t380.5 9q207 0 314.5 -93t107.5 -265q0 -239 -122 -362.5t-349 -123.5q-96 0 -414 25 q-210 18 -320.5 121t-119.5 303q-16 352 -16 561zM307 438q0 -24 5.5 -41t22 -28t31 -17t50 -8.5t59.5 -3t78 -0.5q406 0 477 10q35 5 56.5 28.5t21.5 65.5q0 109 -123 109q-267 0 -579 -8q-99 -3 -99 -107z" />
<glyph unicode="7" horiz-adv-x="1312" d="M51 1417q0 14 1 43t1 45q71 2 244.5 6.5t279.5 7t277 5t332 2.5q41 -107 63 -402q-57 -128 -172 -375.5t-201 -442t-143 -351.5q-205 0 -416 27q175 377 557 952q-373 0 -792 -29q-31 269 -31 512z" />
<glyph unicode="8" horiz-adv-x="1488" d="M57 1006q0 96 24.5 174t67.5 132.5t105 93.5t134.5 60t158.5 29q148 12 407 12q232 0 346.5 -127.5t114.5 -392.5q0 -125 -42.5 -209t-141.5 -141q186 -52 186 -303q-17 -180 -115 -262t-270 -88q-363 -15 -473 -15q-240 0 -358.5 78t-118.5 244q0 129 52 207t161 125 q-238 89 -238 383zM367 442q0 -94 102 -94q287 0 428 6q111 6 111 107q0 82 -84 88q-177 10 -412 10q-145 0 -145 -117zM479 811q0 -63 76 -72q167 -22 475 -22q34 0 58 4t47 16t35 36t12 61q0 110 -90 110q-188 0 -521 -35q-92 -9 -92 -98z" />
<glyph unicode="9" horiz-adv-x="1492" d="M61 997q0 232 123 356.5t357 139.5q169 10 456 10q426 0 426 -504q0 -167 -16 -503q-12 -257 -145.5 -398t-391.5 -141q-284 0 -669 47q-17 114 -17 318q165 -14 411.5 -26.5t324.5 -12.5q145 0 145 172q0 27 -2 41q-55 -38 -123.5 -53t-194.5 -15q-152 0 -278 18 q-406 62 -406 551zM348 776q0 -47 22.5 -73t73.5 -35q46 -8 234.5 -16.5t263.5 -8.5q62 0 97.5 35t35.5 108q0 57 -35 88.5t-92 36.5q-176 15 -428 15q-172 0 -172 -150z" />
<glyph unicode=":" horiz-adv-x="559" d="M86 938q127 12 389 20q0 -110 -18 -258q-173 -12 -363 -12zM88 -4l4 250q134 0 389 -23q-7 -101 -30 -256q-146 5 -363 29z" />
<glyph unicode=";" horiz-adv-x="552" d="M61 -23q0 139 13 238q243 21 418 21q0 -107 -23 -228q-89 -130 -238 -305q-64 47 -112 104q84 103 129 181q-50 -6 -187 -11zM72 926q244 22 389 22l4 -250q-204 -22 -363 -28q-23 155 -30 256z" />
<glyph unicode="&#x3c;" horiz-adv-x="1120" d="M57 575l23 177q379 244 829 608q94 -101 150 -197q-464 -353 -760 -510q250 -153 760 -381q-57 -152 -111 -221q-476 223 -891 524z" />
<glyph unicode="=" horiz-adv-x="1120" d="M37 504q0 39 2 57q491 -20 1024 -20l8 -197q-361 -31 -1020 -31q-14 98 -14 191zM49 1116q380 8 561 8q222 0 453 -12q10 -48 18 -197q-366 0 -1020 -47z" />
<glyph unicode="&#x3e;" horiz-adv-x="1120" d="M57 248q464 353 760 510q-250 153 -760 381q54 145 111 221q495 -232 891 -524l-21 -177q-334 -210 -831 -608q-94 101 -150 197z" />
<glyph unicode="?" horiz-adv-x="1177" d="M51 920q3 281 21 544q361 33 643 33q101 0 174.5 -24t127 -79t79.5 -148t26 -226q0 -138 -17.5 -209t-51.5 -115q-44 -58 -109.5 -86.5t-159.5 -44.5q-137 -21 -137 -151q0 -76 4 -105q-188 0 -379 15q-10 62 -10 104q0 77 30 143.5t83 104.5q55 39 133 53t186 14h62 q145 0 145 109q0 88 -170 88q-226 0 -680 -20zM283 -29v250q127 10 389 10l-27 -260q-57 -2 -176 -2q-123 0 -186 2z" />
<glyph unicode="@" horiz-adv-x="1536" d="M80 883q0 225 103.5 346t295.5 121q316 0 484.5 -13t260.5 -44.5t148 -94.5q94 -105 94 -324q0 -100 -16 -212q-43 -280 -139.5 -415.5t-251.5 -135.5q-311 0 -422 12q-156 19 -172 168q-12 91 -12 266q0 120 48 179t136 59q91 0 149 -2t114 -9.5t88 -20.5t57 -35 t35 -53.5t10 -76.5q0 -131 -23 -285h29q45 0 69.5 72.5t24.5 212.5q0 141 -14.5 207t-48.5 91t-109 30q-187 12 -367 12q-152 0 -228.5 -15.5t-107 -52.5t-30.5 -110q0 -348 28 -574q9 -90 34 -137t73 -53q104 -12 411 -28t521 -19q0 -105 -15 -187q-421 0 -874 39 q-107 8 -196 82.5t-128 218.5q-35 133 -47 300t-12 481zM647 518q0 -144 17 -297q186 0 313 10q12 92 12 279q-127 10 -233 10q-74 0 -109 -2z" />
<glyph unicode="A" d="M70 408q0 194 113.5 298.5t338.5 104.5q323 0 512 -25q139 -16 187 -124q6 41 6 77q0 97 -56 135.5t-184 38.5q-160 0 -407 -15t-422 -38q-8 107 -8 238q0 170 20 329q379 33 807 33q230 0 339 -127t109 -401q0 -96 -2 -290t-2 -286q0 -248 54 -356q-18 -2 -60 -2 q-182 0 -244 115q-43 -87 -118.5 -122.5t-237.5 -35.5q-86 0 -182.5 9t-220.5 41t-195 83q-147 105 -147 320zM492 453q0 -43 20 -64t63 -24q292 -23 582 -23q38 0 56 22.5t18 75.5q0 106 -70 111q-127 11 -323 21t-283 10q-63 0 -63 -129z" />
<glyph unicode="B" horiz-adv-x="1544" d="M61 1466q254 0 593 1t423 1q183 0 264.5 -91.5t81.5 -282.5q0 -272 -147 -363q87 -36 127.5 -110t40.5 -205q0 -87 -23.5 -163.5t-72 -141t-135 -102.5t-201.5 -38q-570 0 -932 19zM293 750q285 -9 579 -9q61 0 93 27t32 68q0 26 -26 58t-76 32q-280 0 -598 -19 q-4 -39 -4 -157zM322 524q17 -105 40 -192h16q116 0 356 13q258 14 333 20q72 3 72 86q0 37 -16.5 58t-47.5 21q-499 0 -753 -6z" />
<glyph unicode="C" horiz-adv-x="1536" d="M70 1038q0 208 108 331.5t318 133.5q170 10 518 10q96 0 127 -2q152 -7 241 -74.5t113 -179.5q-124 -244 -260 -436q-46 110 -78 144q-342 34 -848 45q0 -299 41 -686q301 -7 510 -7q176 0 258 2q43 43 72 82q168 -108 270 -204q-29 -88 -108.5 -139t-212.5 -68 q-151 -21 -347.5 -39.5t-283.5 -18.5q-198 0 -299 114.5t-119 346.5q-20 283 -20 645z" />
<glyph unicode="D" horiz-adv-x="1683" d="M92 1454q272 36 598.5 67t474.5 31q212 0 320 -123.5t108 -359.5q0 -93 -6 -194t-18.5 -251.5t-16.5 -203.5q-38 -459 -368 -459q-195 0 -551 6t-504 13zM305 287q272 -15 436 -15q145 0 383 15q13 172 13 323q0 202 -23 396q-426 -13 -784 -93q-25 -290 -25 -626z" />
<glyph unicode="E" horiz-adv-x="1527" d="M63 1065q0 81 19.5 144t54.5 109.5t95 79.5t130.5 54.5t171.5 33.5t207 16.5t248 4.5q236 0 349.5 -135t113.5 -411q0 -476 -467 -476q-113 0 -477 19q0 -187 121 -187q123 0 344.5 10.5t376.5 24.5q0 -205 -31 -368q-548 13 -834 45q-95 18 -161.5 54t-110 94.5 t-67.5 133t-37 178.5q-46 346 -46 576zM305 770q0 -17 4 -53q506 0 635 12q43 3 61.5 24.5t18.5 67.5q0 89 -68 99q-84 12 -526 12q-62 0 -93.5 -42.5t-31.5 -119.5z" />
<glyph unicode="F" horiz-adv-x="1298" d="M72 -12q26 825 94 1448q461 79 1083 125q-14 -323 -75 -639q-427 -3 -875 -50q-8 -47 -8 -147q540 -35 928 -45q-20 -92 -72 -191q-461 8 -731 23q-29 -255 -35 -541q-129 0 -309 17z" />
<glyph unicode="G" horiz-adv-x="1566" d="M104 1135q0 181 93 267.5t288 100.5q139 10 609 10q143 0 245.5 -80.5t145.5 -220.5q-188 -231 -340 -378q-18 58 -47 108q-371 0 -758 -18q11 -520 20 -582q113 -6 621 -6q143 0 149 184q-139 -25 -417 -41q0 180 20 269q367 18 721 61q-44 -352 -51 -815 q-120 -22 -252 -25q-52 158 -88 226q-9 -222 -254 -222q-111 0 -168 1t-130 7.5t-116 20.5q-268 82 -282 410q-9 219 -9 723z" />
<glyph unicode="H" horiz-adv-x="1468" d="M43 1489q187 20 399 20q103 0 154 -2q8 -104 17.5 -203t23.5 -224.5t18 -164.5q174 -12 443 -12q0 325 18 604q174 0 291 -22q-23 -740 -98 -1473q-158 -37 -348 -47q10 238 10 430q0 117 -2 176q-193 -2 -473 -24q-23 -195 -43 -584q-158 0 -242 10q-71 789 -168 1516z " />
<glyph unicode="I" horiz-adv-x="497" d="M47 1528q215 -3 408 -47q-60 -920 -111 -1469q-117 -40 -246 -51q0 721 -51 1567z" />
<glyph unicode="J" horiz-adv-x="1193" d="M29 213q0 88 2 133q334 -31 723 -31q-21 582 -90 1201q260 -3 475 -39q-16 -197 -48 -584t-34 -410q-19 -237 -45 -293q-93 -213 -316 -225q-41 -2 -151.5 -8t-174 -9t-158 -6t-171.5 -3q-12 132 -12 274z" />
<glyph unicode="K" horiz-adv-x="1607" d="M18 1489q280 35 474 35q67 0 102 -2q-8 -159 -8 -336q0 -195 8 -336q275 338 498 711q274 -10 485 -43q-384 -464 -643 -732q230 -355 571 -786q-240 -54 -493 -80q-178 294 -312 610q-143 -92 -299 -239q4 -134 29 -324q-116 0 -233 15q-113 772 -179 1507z" />
<glyph unicode="L" horiz-adv-x="1288" d="M41 1528q385 -20 573 -47q-50 -568 -143 -1198q305 2 799 71q0 -213 -35 -372q-489 -43 -1120 -60q-31 1032 -74 1606z" />
<glyph unicode="M" horiz-adv-x="1847" d="M47 1487q235 -6 315 -176q21 88 91.5 142t185.5 60q290 11 729 11q191 0 293 -119t102 -346q0 -714 -18 -1108q-241 3 -442 22q12 344 12 514q0 271 -19 504q-196 -3 -352 -30q-34 -373 -41 -990q-141 0 -246 11q-16 434 -16 661q0 202 8 363q-168 0 -334 -31 q2 -74 2 -219q0 -329 -24 -758q-73 -18 -180 -25q-24 888 -66 1514z" />
<glyph unicode="N" horiz-adv-x="1503" d="M39 1518q263 -37 313 -203q101 172 260 178q185 6 398 6q200 0 305.5 -107t105.5 -319q0 -595 -32 -1079q-106 -8 -330 -8q33 646 39 950q-68 2 -207 2q-233 0 -410 -8q-49 -356 -71 -977q-201 15 -326 51q-23 950 -45 1514z" />
<glyph unicode="O" horiz-adv-x="1607" d="M66 989q0 77 13.5 148.5t44.5 138t76.5 115.5t113.5 78.5t151 29.5q430 0 653 -12q198 -10 301 -126.5t103 -318.5q0 -48 -35 -622q-15 -229 -104 -340.5t-269 -124.5l-594 18q-182 6 -297 120t-139 341q-18 187 -18 555zM270 289q327 -23 797 -23q-11 435 -45 692 q-431 -7 -717 -49q-32 -259 -35 -620z" />
<glyph unicode="P" horiz-adv-x="1454" d="M98 -39v1514q212 26 468.5 44.5t400.5 18.5q236 0 344 -174q43 -72 65.5 -172t22.5 -262q0 -174 -21.5 -265.5t-72.5 -150.5q-109 -125 -275 -125q-205 0 -526 31q-31 -255 -33 -428q-166 -24 -373 -31zM270 743q503 -30 643 -30q43 0 72 31.5t29 86.5q0 59 -27 84 t-84 25q-177 0 -616 -29q-16 -142 -17 -168z" />
<glyph unicode="Q" horiz-adv-x="1554" d="M43 1032q0 219 94.5 337.5t276.5 125.5q139 6 682 6q191 0 291.5 -128.5t99.5 -375.5l-4 -585q-1 -173 -78.5 -266.5t-226.5 -104.5l100 -109q-80 -127 -219 -276q-113 156 -215 332q-6 -4 -68 -4q-161 0 -319 4q-191 4 -283 110t-106 330q-25 366 -25 604zM379 768 q0 -250 27 -426q195 -10 288 -10l-32 53l210 287q86 -148 189 -371q93 7 133.5 37.5t40.5 85.5q0 247 -27 485q-268 9 -358 9q-246 0 -467 -17q-4 -82 -4 -133z" />
<glyph unicode="R" horiz-adv-x="1607" d="M45 1499q28 0 423 4t597 4q249 0 370 -126t121 -388q0 -144 -26.5 -245t-88.5 -175t-167 -110.5t-258 -40.5q219 -251 395 -432q-325 -13 -498 -13q-156 237 -284 490q-124 -11 -164 -16q-8 -112 -8 -263q0 -125 2 -186q-126 -18 -316 -25zM272 874q3 -68 17 -135 l758 -47q86 -6 112 -6q79 0 109 33.5t30 89.5q0 92 -112 92q-125 0 -419 -8t-495 -19z" />
<glyph unicode="S" horiz-adv-x="1452" d="M70 942q0 256 115 398.5t327 150.5l831 29q0 -302 -18 -664q-174 26 -439.5 52t-342.5 26q-53 0 -80 -29.5t-27 -83.5q0 -90 70 -90q54 0 217 6t246 6q401 0 401 -331q0 -61 -6.5 -110t-26 -102t-52 -91.5t-88.5 -69.5t-132 -45q-115 -23 -251 -32t-413 -9q-184 0 -297 2 q12 278 37 405q160 -18 465.5 -40.5t384.5 -22.5q80 0 80 117q0 93 -110 96q-61 2 -217.5 5t-219.5 5q-229 6 -341.5 109t-112.5 313z" />
<glyph unicode="T" horiz-adv-x="1363" d="M43 1493q506 47 1268 47q-18 -385 -60 -596q-170 10 -204 10q-115 0 -218 -20q-30 -349 -30 -938q-139 -27 -281 -39q-29 486 -35 1010q-211 -7 -379 -33q-49 252 -61 559z" />
<glyph unicode="U" horiz-adv-x="1548" d="M33 1485q231 22 504 22q18 -635 63 -1124q158 -14 344 -14q125 0 191 4q62 580 69 1030q138 22 299 22q-41 -592 -84 -974q-11 -106 -23.5 -173.5t-34 -129t-54 -96t-81 -56.5t-116.5 -27q-218 -16 -582 -16q-177 0 -263.5 109.5t-114.5 328.5q-87 709 -117 1094z" />
<glyph unicode="V" horiz-adv-x="1533" d="M43 1415q162 46 330 55q165 -526 352 -987q172 463 307 1000q139 20 332 20q24 0 71 -1t70 -1q-253 -776 -596 -1597q-199 17 -411 80q-279 771 -455 1431z" />
<glyph unicode="W" horiz-adv-x="2316" d="M14 1483l553 -27q84 -472 242 -958q102 522 154 977l585 -25q113 -446 197 -991q140 490 215 930q138 33 330 36q-167 -735 -449 -1517q-171 11 -356 65q-102 440 -199 725q-154 -287 -336 -739q-180 0 -301 21q-293 629 -635 1503z" />
<glyph unicode="X" d="M37 1473q207 18 344 18q61 0 90 -2q128 -278 262 -496q158 234 258 467q89 6 176 6q142 0 349 -18q-277 -403 -541 -680l465 -774q-167 -44 -379 -53l-256 544q-152 -243 -285 -483q-151 -33 -457 -61q301 445 502 688q-245 338 -528 844z" />
<glyph unicode="Y" horiz-adv-x="1327" d="M35 1575q200 -10 354 -31q42 -243 162 -684q213 322 352 672q159 0 400 -29q-217 -536 -512 -1095q0 -254 18 -435q-114 -22 -375 -34q4 331 23 505q-261 610 -422 1131z" />
<glyph unicode="Z" horiz-adv-x="1411" d="M74 887q0 296 26 598q466 22 760 22q182 0 404 -10q79 -237 110 -504q-199 -127 -324 -209.5t-296 -203.5t-308 -232q404 24 867 103q14 -165 14 -457q-477 -50 -1212 -72q-19 230 -19 395q239 206 416.5 346.5t355.5 251.5q-422 0 -794 -28z" />
<glyph unicode="[" horiz-adv-x="643" d="M203 1788q230 61 413 72q-6 -166 -30 -299q-35 4 -101 4q-55 -689 -75 -1579q85 -38 190 -41q0 -12 1 -33t1 -29q0 -51 -10 -184q-118 -14 -248 -14q-55 0 -84 2q-55 1255 -57 2101z" />
<glyph unicode="\" horiz-adv-x="665" d="M29 1573q208 -4 340 -47q105 -694 299 -1512l-176 -49q-295 881 -463 1608z" />
<glyph unicode="]" horiz-adv-x="653" d="M59 1982l428 11q0 -1069 -122 -2284l-269 -37l-10 275l117 -8q28 622 28 950q0 406 -28 778l-115 23z" />
<glyph unicode="^" horiz-adv-x="1120" d="M72 563q173 547 389 993l129 -22q188 -445 450 -928q-46 -64 -184 -145q-88 191 -127.5 279t-102.5 242t-104 278q-109 -296 -248 -799q-50 17 -76 27t-66.5 31.5t-59.5 43.5z" />
<glyph unicode="_" horiz-adv-x="968" d="M6 -113q604 0 955 -16l-13 -201q-113 6 -340 6q-196 0 -590 -12q-9 102 -12 223z" />
<glyph unicode="`" horiz-adv-x="776" d="M158 1806q48 131 131 211q167 -81 459 -346q-38 -63 -132 -145q-115 85 -243.5 163t-214.5 117z" />
<glyph unicode="a" horiz-adv-x="1509" d="M53 412q0 200 108 308.5t320 108.5q240 0 557 -59q141 -26 183 -141q14 68 14 90q0 93 -58.5 138.5t-179.5 51.5q-204 11 -426 11q-202 0 -352 -11q0 12 -1 33t-1 31q0 248 45 502q22 0 67.5 1t69.5 1q240 0 621 -21q212 -12 316 -132.5t104 -358.5q0 -125 -21.5 -384 t-21.5 -376q0 -174 39 -256q-230 0 -297 143q-42 -75 -111 -103t-219 -28q-22 0 -61 1.5t-120.5 11t-156 25t-155.5 47t-132 73.5q-131 110 -131 293zM328 469q0 -37 18.5 -55.5t59.5 -24.5q100 -19 317 -40t336 -21q40 0 60 20.5t20 71.5q0 56 -14.5 84.5t-49.5 32.5 q-155 21 -376.5 45t-301.5 24q-69 0 -69 -137z" />
<glyph unicode="b" horiz-adv-x="1560" d="M41 82q10 840 76 1474q268 -21 632.5 -44.5t383.5 -24.5q166 -13 243.5 -98t77.5 -246q0 -155 -49 -262t-135 -152q75 -38 113 -102.5t38 -169.5q0 -89 -26.5 -170.5t-77 -147t-131 -104.5t-180.5 -39q-454 0 -965 86zM328 608q0 -126 8 -186q133 -9 402 -24t304 -15 q34 0 55 24.5t21 65.5q0 79 -57 84q-98 6 -344.5 24.5t-388.5 26.5zM471 811q48 -5 176.5 -19.5t222 -22t181.5 -7.5q131 0 131 102q0 97 -97 105q-460 34 -596 35q-12 -77 -18 -193z" />
<glyph unicode="c" horiz-adv-x="1558" d="M66 483q0 212 32 654q15 209 130 318.5t329 109.5q145 0 349 -14.5t296 -28.5q152 -26 235.5 -97.5t98.5 -181.5q-121 -234 -305 -399q-11 97 -57 155q-389 67 -840 111q-19 -180 -19 -401q0 -101 4 -285q496 -54 768 -66q8 8 28 26.5t36.5 35t26.5 29.5q30 -22 58 -46.5 t59 -55t47.5 -47t51 -53.5t40.5 -44q-35 -88 -128.5 -139.5t-228.5 -57.5q-258 -12 -479 -12q-78 0 -152 4q-197 15 -288.5 135.5t-91.5 349.5z" />
<glyph unicode="d" horiz-adv-x="1691" d="M88 68l59 1476q488 31 885 31q66 0 116.5 -2.5t108.5 -10t101 -22t87 -37t74.5 -57t54.5 -80t36 -107.5t12 -139q0 -105 -15.5 -245t-27 -212t-41.5 -245q-41 -229 -135.5 -331.5t-261.5 -102.5q-180 0 -538.5 28.5t-514.5 55.5zM307 307q350 -50 817 -53q74 368 74 643 q0 15 -1 43t-1 43q-45 2 -135 2q-349 0 -690 -53q-42 -306 -64 -625z" />
<glyph unicode="e" horiz-adv-x="1533" d="M72 780q0 144 10.5 248.5t36.5 194t70 147.5t112 99t161 59t218 18q138 0 373 -20q215 -17 316 -126.5t101 -330.5q0 -88 -13 -163.5t-44.5 -145.5t-80.5 -119.5t-126 -79t-176 -29.5q-56 0 -139 8t-140 15.5t-151 22t-111 16.5q-2 -14 -2 -45q0 -142 105 -150 q127 -11 336 -19.5t360 -8.5q-24 -247 -63 -389q-16 2 -84.5 9t-92 9.5t-86.5 9.5t-94.5 11.5t-88 11.5t-94 13.5t-86 14.5t-91.5 16.5t-84 18.5q-84 20 -147 67t-101.5 109.5t-62 147t-32.5 170.5t-9 190zM365 850q0 -5 1 -16t1 -17q65 -5 230 -20t285 -24t177 -9 q94 0 94 86q0 51 -15 74.5t-48 29.5q-76 14 -292.5 40t-293.5 26q-139 0 -139 -170z" />
<glyph unicode="f" horiz-adv-x="1312" d="M43 37q57 806 152 1460q458 60 1087 84q-24 -349 -90 -637q-164 4 -225 4q-203 0 -568 -24q-15 -66 -20 -191q439 -58 788 -78q-25 -98 -77 -188q-336 11 -691 53q-29 -175 -51 -512q-161 6 -305 29z" />
<glyph unicode="g" horiz-adv-x="1566" d="M102 479q0 368 4.5 527t14.5 228.5t37 129.5q45 103 146.5 147.5t277.5 44.5q334 0 536 -10q328 -16 393 -340q-185 -217 -364 -344q-21 92 -43 129q-242 8 -758 8q-4 -340 -4 -397q0 -173 6 -203q384 -34 619 -34q144 0 153 188q-127 -18 -370 -29q4 171 26 271 q389 6 680 34q-52 -332 -74 -839q-108 -17 -260 -17q-53 188 -82 254q-7 -109 -72.5 -160t-191.5 -51q-136 0 -232.5 10t-185 39t-141.5 79.5t-84 134t-31 200.5z" />
<glyph unicode="h" horiz-adv-x="1468" d="M61 1552q142 17 291 17q120 0 232 -8q2 -74 26 -598q185 -23 443 -37q43 260 51 626q6 0 72 -4t92.5 -6t74.5 -8.5t80 -15.5q-60 -721 -174 -1463q-140 -24 -331 -24q35 402 40 571q-144 4 -219 4q-98 0 -270 -4q-16 -110 -35.5 -324.5t-27.5 -283.5q-153 0 -256 22 q-26 779 -89 1536z" />
<glyph unicode="i" horiz-adv-x="497" d="M49 8q19 379 19 811q0 144 -3 410t-4 332q88 0 143 -2t128.5 -11t132.5 -26q-91 -832 -195 -1536q-122 0 -221 22z" />
<glyph unicode="j" horiz-adv-x="1193" d="M16 197q0 126 11 225q313 -37 721 -51q-2 467 -54 1138q149 25 471 25q-28 -452 -47 -629q-34 -327 -54 -452.5t-58 -229.5q-39 -107 -123.5 -161t-202.5 -56q-380 -10 -490 -10q-53 0 -167 4q-7 107 -7 197z" />
<glyph unicode="k" horiz-adv-x="1619" d="M43 1554q209 43 436 43q43 0 137 -4q-20 -231 -20 -497q0 -131 2 -197q325 372 553 733q301 -26 487 -59q-437 -487 -702 -750q246 -399 514 -741q-208 -75 -481 -94q-142 250 -275 585q-132 -75 -305 -227q0 -56 5 -128.5t12.5 -149t9.5 -105.5q-122 3 -230 23 q-108 953 -143 1568z" />
<glyph unicode="l" horiz-adv-x="1239" d="M33 1544q260 39 571 39q-77 -649 -176 -1231q428 0 750 51q28 -164 28 -303q0 -14 -1 -44.5t-1 -47.5q-565 -35 -1143 -35q-4 988 -28 1571z" />
<glyph unicode="m" horiz-adv-x="1847" d="M59 1544q237 -9 314 -182q46 190 278 199q59 2 244 2q197 0 487 -4q188 -3 287.5 -120.5t99.5 -338.5q0 -678 -36 -1129q-161 6 -410 33q23 420 23 664q0 241 -11 407q-144 23 -346 23q0 -505 -57 -1049q-182 4 -252 12q14 266 14 582q0 163 -6 375q-179 0 -334 -23 q0 -486 -41 -981q-73 -15 -213 -20q0 740 -41 1550z" />
<glyph unicode="n" horiz-adv-x="1490" d="M41 0q18 907 18 1591q266 -53 306 -219q109 168 268 168q54 0 120 -2t150 -5t127 -5q201 -9 297 -118t96 -323q0 -222 -22.5 -549t-57.5 -573q-94 3 -200 22t-180 46q44 440 79 930q-276 17 -618 20q-60 -329 -113 -963q-132 -20 -270 -20z" />
<glyph unicode="o" horiz-adv-x="1619" d="M68 676q0 161 10 383q2 76 17.5 145.5t46.5 134t76 111.5t112 75.5t149 28.5q303 0 668 -38q192 -22 289.5 -130t97.5 -299q0 -81 -61 -649q-24 -228 -115 -339t-262 -111h-21q-133 0 -291 12q-172 12 -290 29q-135 20 -225.5 75t-141.5 166q-38 83 -48.5 173t-10.5 233z M428 330q332 -24 774 -27q-7 415 -41 694q-419 -7 -698 -45q-32 -261 -35 -622z" />
<glyph unicode="p" horiz-adv-x="1454" d="M47 49l103 1512q387 16 745 16q63 0 113.5 -4.5t105.5 -19t97 -38t81 -64.5t64 -96t40 -134.5t15 -178.5q0 -645 -379 -645q-162 0 -571 70q-52 -272 -66 -444q-30 -3 -57 -3q-109 0 -291 29zM336 776q140 -28 380.5 -59t330.5 -31q43 0 74.5 34t31.5 89q0 65 -22 95.5 t-80 33.5q-46 2 -204 10.5t-294.5 14.5t-190.5 6q-13 -68 -26 -193z" />
<glyph unicode="q" horiz-adv-x="1554" d="M53 780q0 260 4 328q9 217 108.5 330.5t280.5 113.5q86 0 687 -26q179 -8 273.5 -125.5t94.5 -339.5q0 -431 -11.5 -572t-53.5 -231q-89 -189 -289 -195l113 -137q-109 -151 -240 -256q-140 218 -211 359q-287 0 -434 28t-221 117q-64 77 -82.5 196.5t-18.5 409.5z M391 614q0 -159 12 -258q190 -19 289 -22l-76 98q131 145 271 234q94 -192 170 -379q92 3 133.5 31t44.5 83q1 27 2.5 75.5t2.5 88t1 74.5q0 147 -8 248q-296 47 -694 47q-23 0 -67.5 -1t-65.5 -1q-15 -169 -15 -318z" />
<glyph unicode="r" horiz-adv-x="1648" d="M82 1044q0 266 6 539q111 -6 471 -21.5t549 -25.5q233 -14 348 -132.5t115 -350.5q0 -117 -13.5 -203.5t-50 -164t-98.5 -126t-161.5 -76.5t-235.5 -28q166 -216 372 -455q-249 -70 -452 -70q-134 222 -295 590q-160 -7 -178 -8q-18 -145 -29 -428q-114 -35 -326 -35 q-22 506 -22 995zM324 942q0 -86 10 -151q375 -47 655 -72q70 -6 129 -6q129 0 129 118q0 50 -25 71t-83 24q-282 16 -815 16z" />
<glyph unicode="s" horiz-adv-x="1464" d="M92 981q0 268 121 413.5t340 145.5h846q-4 -117 -10 -220.5t-17.5 -260t-13.5 -182.5q-696 116 -823 116q-111 0 -111 -123q0 -38 18 -60t50 -22q61 0 241.5 1.5t249.5 1.5q192 0 289.5 -93.5t97.5 -265.5q0 -242 -145.5 -339t-499.5 -97q-120 0 -608 27q24 277 51 405 q204 -31 461.5 -63.5t326.5 -32.5q86 0 86 112q0 92 -108 101q-103 7 -404 24q-220 14 -329 114t-109 298z" />
<glyph unicode="t" horiz-adv-x="1359" d="M51 1561q267 12 535 12q317 0 735 -17q-13 -325 -64 -557q-140 13 -282 13q-91 0 -162 -6q-42 -372 -65 -996q-139 0 -283 19q-4 266 -4 377q0 296 8 569q-195 0 -377 -19q-41 258 -41 605z" />
<glyph unicode="u" horiz-adv-x="1566" d="M53 1509q211 11 334 11q105 0 158 -2q0 -584 28 -1119q117 -10 218 -10q159 0 317 21q74 517 100 1114q114 16 314 16q-74 -798 -111 -1067q-15 -105 -29 -172t-37.5 -128.5t-56.5 -95.5t-81.5 -54.5t-116.5 -22.5q-205 -10 -418 -10q-166 0 -265 24.5t-149 83.5 q-94 105 -117 353q-69 701 -88 1058z" />
<glyph unicode="v" horiz-adv-x="1536" d="M23 1526q41 8 106 8q121 0 264 -27q158 -411 318 -979q171 425 336 1008q35 2 104 2q171 0 369 -25q-266 -739 -643 -1570q-45 2 -103 9t-91 12t-115 19t-99 17q-197 766 -446 1526z" />
<glyph unicode="w" horiz-adv-x="2330" d="M12 1489q278 70 516 84q169 -591 240 -1051q102 451 168 959l586 30q106 -445 182 -1001q155 511 231 907q144 33 342 33q-168 -696 -473 -1491q-180 15 -356 72q-78 380 -186 708q-129 -237 -349 -755q-175 0 -301 22q-138 371 -200.5 536.5t-178 446t-221.5 500.5z" />
<glyph unicode="x" horiz-adv-x="1550" d="M29 1546q33 0 113.5 1t125.5 1q152 0 234 -4q106 -270 239 -506q146 272 277 455q251 29 395 29q49 0 141 -9q-67 -70 -154 -170.5t-150.5 -178.5t-164.5 -203.5t-145 -180.5q243 -379 424 -772q-257 -55 -391 -55q-101 320 -242 571q-59 -111 -157.5 -265t-190.5 -279 q-178 41 -246 66q-51 20 -100 46q257 282 487 649q-32 50 -125 189.5t-136.5 208t-111.5 184.5t-122 223z" />
<glyph unicode="y" horiz-adv-x="1323" d="M51 1649q241 -21 391 -50q14 -117 37 -249.5t39.5 -211t50.5 -229.5q233 319 385 652q145 -7 359 -48q-252 -545 -565 -1069q8 -79 8 -190q0 -116 -11 -266q-66 -4 -98 -4q-134 0 -289 18q44 211 50 496q-207 555 -357 1151z" />
<glyph unicode="z" horiz-adv-x="1431" d="M72 250q0 76 6 156q461 359 796 546q-128 -10 -288 -10q-155 0 -467 19q19 324 55 595q423 -47 903 -47q150 0 226 2q64 -229 86 -499q-582 -334 -959 -606q416 59 936 59q0 -185 -31 -457q-221 6 -463 6q-405 0 -786 -18q-14 133 -14 254z" />
<glyph unicode="{" horiz-adv-x="585" d="M72 621v172q117 3 200 67q-7 18 -42 102.5t-49.5 128t-31 128.5t-16.5 170q0 189 92.5 296t247.5 107q23 0 51 -4q0 -131 -12 -213q-76 0 -132 -60.5t-56 -171.5q0 -55 61 -242t61 -231q0 -62 -40 -102.5t-101 -48.5q55 -6 102.5 -55.5t47.5 -114.5q0 -52 -48.5 -240.5 t-48.5 -275.5q0 -84 33 -123t105 -39q3 0 10.5 1t11.5 1q0 -66 -4 -188q-25 -4 -96 -4q-63 0 -112.5 36t-78 92.5t-43 117t-14.5 118.5q0 102 32.5 215.5t100.5 292.5q-93 68 -231 68z" />
<glyph unicode="|" horiz-adv-x="569" d="M178 -311v1917l213 -33v-1856q-57 -15 -213 -28z" />
<glyph unicode="}" horiz-adv-x="585" d="M72 -315q0 134 14 211q76 0 131 60t55 173q0 55 -60 241t-60 230q0 64 40 105t101 47q-56 6 -103 56t-47 114q0 53 48.5 241.5t48.5 276.5q0 82 -33 120.5t-105 38.5q-3 0 -10.5 -1t-11.5 -1q0 65 4 191q25 4 96 4q63 0 112.5 -36.5t78 -93.5t43 -118t14.5 -119 q0 -102 -32.5 -214.5t-100.5 -292.5q93 -68 229 -68v-170q-115 -7 -200 -70q10 -24 35 -82.5t39 -96.5t32 -96t26.5 -120.5t8.5 -130.5q0 -189 -92.5 -296t-249.5 -107q-19 0 -51 4z" />
<glyph unicode="~" horiz-adv-x="1120" d="M45 623q0 125 54 184t167 59q54 0 265.5 -64.5t285.5 -64.5q38 0 58 17.5t20 46.5q0 35 -27 73q130 -20 195 -53q14 -51 14 -82q0 -85 -58 -131.5t-130 -46.5q-85 0 -213 28.5t-237.5 57.5t-149.5 29q-32 0 -46 -16t-14 -50q0 -19 7 -59q-99 15 -191 72z" />
<glyph unicode="&#xa1;" horiz-adv-x="534" d="M53 1165q5 110 31 256q180 -6 362 -26l-4 -250q-123 0 -389 20zM61 -156q43 503 78 1168q79 12 201 12q100 -649 147 -1165q-190 -19 -297 -19q-43 0 -129 4z" />
<glyph unicode="&#xa2;" horiz-adv-x="1132" d="M51 942v39q0 145 81 233t237 95q5 0 40 1t62 1v239l182 -26v-209h103q165 0 250.5 -42t105.5 -138q-88 -174 -194 -306q-26 69 -56 101q-63 5 -209 14v-473q122 0 181 2q52 58 53 59q126 -79 203 -145q-8 -24 -20 -43t-32 -34t-37.5 -26t-51 -20t-57 -14.5t-70.5 -12 t-77.5 -9.5l-91.5 -9v-196q-43 -10 -182 -23v205q-74 -4 -92 -4q-81 0 -138.5 20.5t-93 75.5t-56 103t-29 153.5t-10 174t-1.5 214.5zM240 961q0 -219 28 -482l213 -8v481q-122 6 -241 9z" />
<glyph unicode="&#xa3;" horiz-adv-x="1511" d="M51 281q8 -1 38.5 -4t47.5 -3q53 0 193 17q0 152 -31 252h-213q-16 76 -16 174q0 39 2 59l202 -22q-26 144 -26 270q0 225 107.5 347.5t338.5 154.5q135 18 342 18q176 0 274 -55.5t128 -179.5q-105 -238 -250 -451q-47 100 -84 141q-325 30 -586 33q-2 -20 -2 -59 q0 -92 14 -185q203 0 371 13q0 -94 -12 -238q-195 0 -348 8q6 -59 6 -114q0 -66 -6 -133l821 28q39 -125 43 -364l-1299 -47q-49 152 -55 340z" />
<glyph unicode="&#xa4;" horiz-adv-x="1392" d="M31 1245l170 178l184 -225q50 22 133 29.5t275 7.5q101 0 174 -43l217 242l178 -172l-262 -287q12 -59 12 -141q0 -281 -51 -400l215 -215l-135 -139l-223 213q-65 -19 -144 -19q-261 0 -360 31l-234 -213l-141 137l219 217q-53 120 -53 418q0 94 18 152zM436 676 q0 -132 39.5 -190t147.5 -58q159 0 215.5 57t56.5 222q0 100 -48.5 167.5t-125.5 67.5q-64 0 -112.5 -9.5t-79 -29t-50 -41.5t-28.5 -55.5t-12 -62t-3 -68.5z" />
<glyph unicode="&#xa5;" horiz-adv-x="1392" d="M51 1575q115 -2 373 -39q66 -387 151 -668q212 323 375 656q37 4 109 4q114 0 278 -25q-242 -452 -467 -770l224 8q-10 -96 -31 -202h-330l10 -125q114 -4 166 -4q54 0 164 4q-24 -114 -57 -166h-193q2 -114 37 -281q-123 -18 -387 -22q-22 121 -22 301h-218 q-18 68 -18 164q175 0 293 12l4 125h-309q-17 93 -17 176h234q-218 443 -369 852z" />
<glyph unicode="&#xa6;" horiz-adv-x="569" d="M178 -311v753h213v-725q-57 -15 -213 -28zM178 862v744l213 -33v-729z" />
<glyph unicode="&#xa7;" horiz-adv-x="1150" d="M78 537q0 194 84 307q-78 78 -78 237q0 197 85.5 306t244.5 118q111 7 351 14.5t273 8.5q0 -274 -6 -430q-129 20 -329 39.5t-259 19.5q-88 0 -88 -125q0 -66 13 -91.5t41 -25.5q40 0 163 5.5t185 5.5q150 0 225.5 -67t75.5 -216q0 -228 -101 -311q95 -72 95 -236 q0 -160 -49 -249t-164 -111q-96 -17 -197.5 -25t-300.5 -8q-139 0 -223 2q8 200 26 313q452 -49 603 -49q81 0 81 119q0 62 -20.5 87.5t-63.5 25.5q-74 3 -327 8q-171 5 -255.5 85t-84.5 243zM324 571q0 -86 9.5 -130t25 -57t44.5 -13q40 0 163.5 6t185.5 6q21 0 57 -4 q27 64 27 194q0 103 -19.5 137.5t-64.5 34.5q-46 2 -173.5 3.5t-185.5 7.5q-69 -34 -69 -185z" />
<glyph unicode="&#xa8;" horiz-adv-x="1146" d="M111 1978q143 16 391 23q0 -110 -19 -262q-176 -15 -364 -15zM647 1751l4 250q134 0 389 -23q-4 -80 -30 -256q-146 5 -363 29z" />
<glyph unicode="&#xa9;" horiz-adv-x="1564" d="M70 907q0 127 10.5 216.5t37.5 162.5t73 116t116 66t168 23q305 0 643 -23q180 -14 267.5 -111t87.5 -288q0 -161 -15 -412.5t-35 -394.5q-22 -171 -77.5 -214t-232.5 -67q-3 -1 -5 -1q-94 -11 -277 -11q-193 0 -385 11q-74 5 -116.5 12t-81.5 23.5t-64 44.5t-49 75 q-36 69 -50.5 220t-14.5 552zM274 1235q0 -569 19 -1022q340 -35 954 -59q31 702 31 1034q-545 47 -1004 47zM457 756q0 55 3 92.5t14 75.5t31 60.5t54.5 38t83.5 17.5q58 4 227 4q99 0 149.5 -26.5t65.5 -85.5q-59 -115 -116 -193q-22 51 -33 62q-129 12 -375 20 q0 -151 19 -303q57 -2 172 -2h166l32 37q86 -56 117 -90q-20 -77 -141 -92q-167 -25 -277 -25q-39 0 -68.5 10.5t-50 27t-34.5 47.5t-21.5 59.5t-11.5 77t-5 87.5t-1 101z" />
<glyph unicode="&#xaa;" horiz-adv-x="886" d="M51 795q0 235 334 235q89 0 170.5 -15t116.5 -46q0 58 -30 102.5t-87 44.5q-246 0 -455 -26q-6 68 -6 137q0 93 12 192q226 19 445 19q129 0 191.5 -72t62.5 -225q0 -7 -1 -130t-1 -243q0 -146 41 -201q-33 -6 -56 -6q-90 0 -133 49q-24 -40 -64.5 -55.5t-127.5 -15.5 q-41 0 -78 3t-88 11t-91.5 26t-77 44.5t-57 70.5t-20.5 101zM303 819q0 -33 33 -33q159 -14 311 -14q27 0 27 39q0 46 -27 49q-158 14 -323 14q-21 0 -21 -55z" />
<glyph unicode="&#xab;" horiz-adv-x="1007" d="M18 709q285 311 361 403q91 -104 131 -168q-24 -39 -52 -77t-74 -96t-60 -77q115 -120 186 -229q-42 -68 -117 -143q-173 197 -375 387zM463 700q157 203 366 375q12 -12 42.5 -40.5t49.5 -49t33 -41.5q-91 -96 -186 -229q7 -8 47 -58.5t54 -69t40 -55.5t45 -67 q-44 -72 -133 -168q-81 101 -358 403z" />
<glyph unicode="&#xac;" horiz-adv-x="1112" d="M78 874q199 15 519 33.5t435 18.5q15 -513 15 -668h-216q0 40 -5.5 163t-6.5 230q-45 -2 -283.5 -17.5t-437.5 -23.5z" />
<glyph unicode="&#xad;" horiz-adv-x="749" d="M70 877q383 0 604 -11q-9 -198 -43 -354q-180 8 -545 8q-16 153 -16 357z" />
<glyph unicode="&#xae;" horiz-adv-x="1564" d="M70 907q0 127 10.5 216.5t37.5 162.5t73 116t116 66t168 23q305 0 643 -23q180 -14 267.5 -111t87.5 -288q0 -161 -15 -412.5t-35 -394.5q-22 -171 -77.5 -214t-232.5 -67q-3 -1 -5 -1q-94 -11 -277 -11q-193 0 -385 11q-74 5 -116.5 12t-81.5 23.5t-64 44.5t-49 75 q-36 69 -50.5 220t-14.5 552zM274 1235q0 -569 19 -1022q340 -35 954 -59q31 702 31 1034q-545 47 -1004 47zM444 1038q58 0 215.5 1t235.5 1q109 0 162 -56t53 -171q0 -128 -53 -188t-185 -64q44 -51 177 -190q-99 -6 -220 -6q-75 115 -127 219q-43 -4 -71 -11 q-6 -105 -6 -114q0 -55 4 -84q-42 -6 -140 -10zM545 762q4 -43 8 -60l334 -20q25 -2 49 -2q35 0 48 14t13 39q0 39 -49 39q-188 0 -403 -10z" />
<glyph unicode="&#xaf;" horiz-adv-x="991" d="M94 1628q0 153 6 223q434 0 766 9q-4 -149 -14 -220q-253 -16 -522 -16q-92 0 -236 4z" />
<glyph unicode="&#xb0;" horiz-adv-x="808" d="M51 1309q0 176 109 245q46 29 108 37t244 8q123 0 187.5 -75t64.5 -240q0 -114 -10.5 -192t-30 -126.5t-53.5 -75t-73 -35.5t-97 -9q-103 0 -159.5 3.5t-115.5 19t-85.5 43.5t-50.5 81.5t-31 128t-7 187.5zM233 1161q0 -104 31.5 -150t116.5 -46q123 0 168 44.5t45 176.5 q0 78 -37.5 130t-99.5 52q-50 0 -88 -7.5t-62 -22.5t-39.5 -32t-22.5 -43t-9.5 -48.5t-2.5 -53.5z" />
<glyph unicode="&#xb1;" horiz-adv-x="1120" d="M39 18h1032l10 -196l-1030 -41zM39 840q226 -16 420 -19q-3 58 -23 402q143 14 248 14q10 -238 10 -418q253 4 377 10q10 -63 10 -196q-195 -21 -391 -33q-3 -200 -18 -397q-88 -8 -197 -8q-4 262 -8 397q-140 -4 -209 -4q-71 0 -207 4q-9 109 -12 248z" />
<glyph unicode="&#xb2;" horiz-adv-x="856" d="M63 756q0 162 10 246.5t36 121.5q64 95 219 95q52 0 160.5 -4.5t134.5 -4.5q18 0 26 10t8 35q0 41 -32 41q-195 0 -475 -28q-31 215 -31 348q132 4 200 4q102 0 168.5 -5t128.5 -21t96 -45t54 -77.5t20 -119.5q0 -144 -55 -209.5t-147 -65.5q-52 0 -163 3t-134 3 q-30 0 -48.5 -26t-21.5 -70q269 0 574 27q-21 -143 -48 -232q-78 -9 -175.5 -14t-157 -6.5t-184.5 -3t-163 -2.5z" />
<glyph unicode="&#xb3;" horiz-adv-x="808" d="M63 1305q4 213 17 329q319 -9 645 -47q0 -120 -14 -223q-83 -55 -172 -94q192 -10 192 -197q0 -72 -20.5 -131t-55.5 -92q-53 -52 -163.5 -68t-401.5 -22q-8 91 -12 239q115 0 288 5.5t218 9.5q22 2 30.5 10t8.5 29q0 43 -185 43q-53 0 -155 -6q-13 45 -13 108v37 q28 14 103.5 44.5t93.5 39.5q-277 0 -404 -14z" />
<glyph unicode="&#xb4;" horiz-adv-x="792" d="M31 1686q305 269 477 331q92 -109 127 -164q-233 -125 -512 -327q-60 86 -92 160z" />
<glyph unicode="&#xb6;" horiz-adv-x="1396" d="M98 1087q0 129 19 218.5t57 139.5t87.5 71.5t117.5 21.5q289 0 946 -72v-1802q-130 3 -240 23q0 160 2.5 433.5t2.5 387.5q0 272 -7 549l-143 10v-1378q-139 7 -242 20q0 14 -2.5 185t-5 324t-6.5 305t-8 186q-212 -23 -338 -23q-110 0 -180 94q-33 42 -46.5 109 t-13.5 198zM346 1014q0 -40 18.5 -64t47.5 -24q57 0 417 22l-12 125q-62 6 -197.5 13.5t-201.5 7.5q-38 0 -55 -18.5t-17 -61.5z" />
<glyph unicode="&#xb7;" horiz-adv-x="509" d="M61 879q162 15 392 22q0 -108 -19 -264q-176 -12 -364 -12z" />
<glyph unicode="&#xb8;" horiz-adv-x="479" d="M45 -266q0 120 10 203q203 16 375 16q0 -87 -20 -193q-74 -105 -160 -200q-71 33 -111 82q9 13 35 46t37 54q-27 -3 -166 -8z" />
<glyph unicode="&#xb9;" horiz-adv-x="479" d="M33 1479q75 91 141 155q121 0 238 -24q-7 -516 -29 -822q-50 -12 -209 -18q19 315 19 541l-62 -45q-57 94 -98 213z" />
<glyph unicode="&#xba;" horiz-adv-x="948" d="M72 1165q0 73 22 135.5t75.5 107t131.5 44.5q229 0 350 -6q113 -6 171.5 -71t58.5 -181q0 -141 -27 -389q-10 -95 -62.5 -159t-142.5 -64q-316 0 -397 18q-148 33 -170 250q-10 95 -10 315zM209 784q130 -10 401 -10q-8 245 -24 363q-178 -3 -363 -27q-14 -134 -14 -326z " />
<glyph unicode="&#xbb;" horiz-adv-x="980" d="M18 492q31 49 100.5 137t86.5 112q-88 117 -187 228q46 71 119 143q242 -205 373 -387q-255 -278 -358 -403q-92 100 -134 170zM463 465q71 109 186 229q-23 44 -58 92.5t-57.5 75.5t-70.5 82q44 72 133 168q157 -130 358 -403q-200 -187 -372 -387q-72 72 -119 143z" />
<glyph unicode="&#xbc;" horiz-adv-x="1638" d="M72 1479q75 91 141 155q121 0 238 -24q-7 -516 -29 -822q-50 -12 -209 -18q18 299 18 541l-61 -45q-57 94 -98 213zM76 -41q594 893 1005 1604q55 8 121 8q83 0 213 -23q-572 -941 -1089 -1614q-27 -4 -78 -4q-98 0 -172 29zM932 236q144 270 360 587l195 -22 q6 -144 6 -303q0 -142 -4 -224l47 9q10 -98 10 -215q-32 -7 -57 -7q0 -41 -8 -90q-63 -10 -221 -10l14 105q-171 -14 -328 -17zM1196 258q108 0 184 10q8 85 11 195q-108 -94 -195 -205z" />
<glyph unicode="&#xbd;" horiz-adv-x="1857" d="M72 1479q75 91 141 155q121 0 238 -24q-7 -516 -29 -822q-50 -12 -209 -18q18 299 18 541l-61 -45q-57 94 -98 213zM76 -41q594 893 1005 1604q55 8 121 8q83 0 213 -23q-572 -941 -1089 -1614q-27 -4 -78 -4q-98 0 -172 29zM1038 -59q0 163 9.5 247t35.5 121 q63 94 220 94q52 0 160 -4t134 -4q18 0 26.5 10t8.5 35q0 41 -33 41q-195 0 -475 -28q-30 208 -30 348q132 4 200 4q102 0 168.5 -5t128.5 -21t96 -45t54 -77.5t20 -119.5q0 -144 -55 -209.5t-147 -65.5q-52 0 -163 3t-134 3q-30 0 -48.5 -26t-21.5 -70q268 0 573 27 q-22 -149 -47 -232q-78 -9 -175.5 -14t-157 -6.5t-184.5 -3t-163 -2.5z" />
<glyph unicode="&#xbe;" horiz-adv-x="1746" d="M70 1305q4 224 16 329q319 -9 645 -47q0 -120 -14 -223q-83 -55 -172 -94q192 -10 192 -197q0 -72 -20.5 -131t-54.5 -92q-53 -52 -163.5 -68t-402.5 -22q-8 91 -12 239q115 0 288 5.5t218 9.5q22 2 30.5 10t8.5 29q0 43 -185 43q-53 0 -155 -6q-13 45 -13 108v37 q28 14 103.5 44.5t93.5 39.5q-276 0 -403 -14zM219 -41q602 905 1006 1604q55 8 121 8q83 0 213 -23q-569 -934 -1090 -1614q-27 -4 -78 -4q-98 0 -172 29zM1040 236q141 263 361 587l194 -22q7 -168 7 -303q0 -122 -5 -224l48 9q10 -98 10 -215q-31 -7 -58 -7q0 -41 -8 -90 q-63 -10 -221 -10l14 105q-171 -14 -327 -17zM1305 258q108 0 184 10q6 67 10 195q-105 -91 -194 -205z" />
<glyph unicode="&#xbf;" horiz-adv-x="1185" d="M57 360q0 135 18.5 207t53.5 119q42 57 108 85t160 44q138 21 138 152q0 70 -5 104q202 0 377 -14q11 -68 11 -103q0 -78 -30 -144.5t-83 -104.5q-96 -66 -318 -66h-63q-67 0 -105 -27.5t-38 -81.5q0 -88 170 -88q140 0 679 19q-7 -326 -22 -545q-382 -31 -643 -31 q-206 0 -307 108t-101 367zM508 1151l29 258q57 2 174 2q125 0 188 -2v-250q-129 -8 -391 -8z" />
<glyph unicode="&#xc0;" d="M70 408q0 194 113.5 298.5t338.5 104.5q323 0 512 -25q139 -16 187 -124q6 41 6 77q0 97 -56 135.5t-184 38.5q-160 0 -407 -15t-422 -38q-8 107 -8 238q0 170 20 329q379 33 807 33q230 0 339 -127t109 -401q0 -96 -2 -290t-2 -286q0 -248 54 -356q-18 -2 -60 -2 q-182 0 -244 115q-43 -87 -118.5 -122.5t-237.5 -35.5q-86 0 -182.5 9t-220.5 41t-195 83q-147 105 -147 320zM385 1806q48 131 131 211q167 -81 459 -346q-40 -65 -131 -145q-114 84 -243 162.5t-216 117.5zM492 453q0 -43 20 -64t63 -24q292 -23 582 -23q38 0 56 22.5 t18 75.5q0 106 -70 111q-127 11 -323 21t-283 10q-63 0 -63 -129z" />
<glyph unicode="&#xc1;" d="M70 408q0 194 113.5 298.5t338.5 104.5q323 0 512 -25q139 -16 187 -124q6 41 6 77q0 97 -56 135.5t-184 38.5q-160 0 -407 -15t-422 -38q-8 107 -8 238q0 170 20 329q379 33 807 33q230 0 339 -127t109 -401q0 -96 -2 -290t-2 -286q0 -248 54 -356q-18 -2 -60 -2 q-182 0 -244 115q-43 -87 -118.5 -122.5t-237.5 -35.5q-86 0 -182.5 9t-220.5 41t-195 83q-147 105 -147 320zM492 453q0 -43 20 -64t63 -24q292 -23 582 -23q38 0 56 22.5t18 75.5q0 106 -70 111q-127 11 -323 21t-283 10q-63 0 -63 -129zM571 1686q304 268 478 331 q92 -109 127 -164q-233 -125 -512 -327q-63 89 -93 160z" />
<glyph unicode="&#xc2;" d="M70 408q0 194 113.5 298.5t338.5 104.5q323 0 512 -25q139 -16 187 -124q6 41 6 77q0 97 -56 135.5t-184 38.5q-160 0 -407 -15t-422 -38q-8 107 -8 238q0 170 20 329q379 33 807 33q230 0 339 -127t109 -401q0 -96 -2 -290t-2 -286q0 -248 54 -356q-18 -2 -60 -2 q-182 0 -244 115q-43 -87 -118.5 -122.5t-237.5 -35.5q-86 0 -182.5 9t-220.5 41t-195 83q-147 105 -147 320zM369 1645q200 172 387 372q312 -283 403 -358q-97 -89 -170 -133q-49 32 -139 101t-111 85q-108 -103 -227 -186q-70 46 -143 119zM492 453q0 -43 20 -64t63 -24 q292 -23 582 -23q38 0 56 22.5t18 75.5q0 106 -70 111q-127 11 -323 21t-283 10q-63 0 -63 -129z" />
<glyph unicode="&#xc3;" d="M70 408q0 194 113.5 298.5t338.5 104.5q323 0 512 -25q139 -16 187 -124q6 41 6 77q0 97 -56 135.5t-184 38.5q-160 0 -407 -15t-422 -38q-8 107 -8 238q0 170 20 329q379 33 807 33q230 0 339 -127t109 -401q0 -96 -2 -290t-2 -286q0 -248 54 -356q-18 -2 -60 -2 q-182 0 -244 115q-43 -87 -118.5 -122.5t-237.5 -35.5q-86 0 -182.5 9t-220.5 41t-195 83q-147 105 -147 320zM360 1690q128 215 312 215q45 0 86 -17.5t66 -38t54 -38t52 -17.5q33 0 64.5 28t70.5 93q88 -30 147 -94q-44 -101 -124 -166.5t-177 -65.5q-38 0 -77 16.5 t-66.5 37t-61.5 37t-63 16.5q-55 0 -139 -121q-75 52 -144 115zM492 453q0 -43 20 -64t63 -24q292 -23 582 -23q38 0 56 22.5t18 75.5q0 106 -70 111q-127 11 -323 21t-283 10q-63 0 -63 -129z" />
<glyph unicode="&#xc4;" d="M70 408q0 194 113.5 298.5t338.5 104.5q323 0 512 -25q139 -16 187 -124q6 41 6 77q0 97 -56 135.5t-184 38.5q-160 0 -407 -15t-422 -38q-8 107 -8 238q0 170 20 329q379 33 807 33q230 0 339 -127t109 -401q0 -96 -2 -290t-2 -286q0 -248 54 -356q-18 -2 -60 -2 q-182 0 -244 115q-43 -87 -118.5 -122.5t-237.5 -35.5q-86 0 -182.5 9t-220.5 41t-195 83q-147 105 -147 320zM340 1978q143 16 391 23q0 -118 -18 -262q-176 -15 -365 -15zM492 453q0 -43 20 -64t63 -24q292 -23 582 -23q38 0 56 22.5t18 75.5q0 106 -70 111 q-127 11 -323 21t-283 10q-63 0 -63 -129zM877 1751l4 250q134 0 389 -23q-3 -70 -31 -256q-145 5 -362 29z" />
<glyph unicode="&#xc5;" d="M70 408q0 194 113.5 298.5t338.5 104.5q323 0 512 -25q139 -16 187 -124q6 41 6 77q0 97 -56 135.5t-184 38.5q-160 0 -407 -15t-422 -38q-8 107 -8 238q0 170 20 329q379 33 807 33q230 0 339 -127t109 -401q0 -96 -2 -290t-2 -286q0 -248 54 -356q-18 -2 -60 -2 q-182 0 -244 115q-43 -87 -118.5 -122.5t-237.5 -35.5q-86 0 -182.5 9t-220.5 41t-195 83q-147 105 -147 320zM492 453q0 -43 20 -64t63 -24q292 -23 582 -23q38 0 56 22.5t18 75.5q0 106 -70 111q-127 11 -323 21t-283 10q-63 0 -63 -129zM518 1755q0 130 78 196t190 66 q126 0 191 -60.5t65 -178.5q0 -70 -24 -121t-66 -78.5t-89 -40t-101 -12.5q-116 0 -180 63.5t-64 165.5zM664 1772q0 -109 108 -109q133 0 133 111q0 112 -119 112q-61 0 -91.5 -31t-30.5 -83z" />
<glyph unicode="&#xc6;" horiz-adv-x="2566" d="M70 408q0 194 113.5 298.5t338.5 104.5q323 0 512 -25q139 -16 187 -124q6 41 6 77q0 97 -56 135.5t-184 38.5q-160 0 -407 -15t-422 -38q-8 107 -8 238q0 170 20 329q379 33 807 33q163 0 270 -67q106 66 287 90t477 24q236 0 349.5 -135t113.5 -411q0 -476 -467 -476 q-111 0 -475 19q0 -187 119 -187q123 0 344.5 10.5t376.5 24.5q0 -193 -29 -368q-550 13 -836 45q-178 33 -264 139q-65 -87 -179 -150t-249 -63q-86 0 -182.5 9t-220.5 41t-195 83q-147 105 -147 320zM492 453q0 -43 20 -64t63 -24q292 -23 582 -23q38 0 56 22.5t18 75.5 q0 106 -70 111q-127 11 -323 21t-283 10q-63 0 -63 -129zM1327 770q0 -7 1 -16t2.5 -20t2.5 -17q459 -4 633 12q43 3 62.5 24t19.5 68q0 89 -70 99q-82 12 -526 12q-62 0 -93.5 -42.5t-31.5 -119.5z" />
<glyph unicode="&#xc7;" horiz-adv-x="1536" d="M70 1118q0 208 108 331.5t318 133.5q170 10 518 10q96 0 127 -2q152 -7 241 -74.5t113 -179.5q-124 -244 -260 -436q-45 108 -78 143q-355 35 -848 46q0 -300 41 -687q258 -6 510 -6q176 0 258 2q43 43 72 82q165 -106 270 -205q-29 -88 -108 -138.5t-213 -67.5 q-151 -21 -347.5 -39.5t-283.5 -18.5q-198 0 -299 114.5t-119 346.5q-20 283 -20 645zM616 -266q0 112 11 203q203 16 374 16q0 -87 -20 -193q-74 -105 -160 -200q-69 32 -110 82q8 13 34 46t37 54q-27 -3 -166 -8z" />
<glyph unicode="&#xc8;" horiz-adv-x="1527" d="M63 1065q0 81 19.5 144t54.5 109.5t95 79.5t130.5 54.5t171.5 33.5t207 16.5t248 4.5q236 0 349.5 -135t113.5 -411q0 -476 -467 -476q-113 0 -477 19q0 -187 121 -187q123 0 344.5 10.5t376.5 24.5q0 -205 -31 -368q-548 13 -834 45q-95 18 -161.5 54t-110 94.5 t-67.5 133t-37 178.5q-46 346 -46 576zM305 770q0 -17 4 -53q506 0 635 12q43 3 61.5 24.5t18.5 67.5q0 89 -68 99q-84 12 -526 12q-62 0 -93.5 -42.5t-31.5 -119.5zM362 1806q48 130 132 211q164 -80 458 -346q-40 -65 -131 -145q-114 84 -243 162.5t-216 117.5z" />
<glyph unicode="&#xc9;" horiz-adv-x="1527" d="M63 1065q0 81 19.5 144t54.5 109.5t95 79.5t130.5 54.5t171.5 33.5t207 16.5t248 4.5q236 0 349.5 -135t113.5 -411q0 -476 -467 -476q-113 0 -477 19q0 -187 121 -187q123 0 344.5 10.5t376.5 24.5q0 -205 -31 -368q-548 13 -834 45q-95 18 -161.5 54t-110 94.5 t-67.5 133t-37 178.5q-46 346 -46 576zM305 770q0 -17 4 -53q506 0 635 12q43 3 61.5 24.5t18.5 67.5q0 89 -68 99q-84 12 -526 12q-62 0 -93.5 -42.5t-31.5 -119.5zM569 1686q304 268 478 331q92 -109 127 -164q-233 -125 -512 -327q-63 89 -93 160z" />
<glyph unicode="&#xca;" horiz-adv-x="1527" d="M63 1065q0 81 19.5 144t54.5 109.5t95 79.5t130.5 54.5t171.5 33.5t207 16.5t248 4.5q236 0 349.5 -135t113.5 -411q0 -476 -467 -476q-113 0 -477 19q0 -187 121 -187q123 0 344.5 10.5t376.5 24.5q0 -205 -31 -368q-548 13 -834 45q-95 18 -161.5 54t-110 94.5 t-67.5 133t-37 178.5q-46 346 -46 576zM305 770q0 -17 4 -53q506 0 635 12q43 3 61.5 24.5t18.5 67.5q0 89 -68 99q-84 12 -526 12q-62 0 -93.5 -42.5t-31.5 -119.5zM389 1645q200 172 387 372q302 -274 404 -358q-97 -89 -170 -133q-49 32 -139 101t-111 85 q-106 -101 -228 -186q-70 46 -143 119z" />
<glyph unicode="&#xcb;" horiz-adv-x="1527" d="M63 1065q0 81 19.5 144t54.5 109.5t95 79.5t130.5 54.5t171.5 33.5t207 16.5t248 4.5q236 0 349.5 -135t113.5 -411q0 -476 -467 -476q-113 0 -477 19q0 -187 121 -187q123 0 344.5 10.5t376.5 24.5q0 -205 -31 -368q-548 13 -834 45q-95 18 -161.5 54t-110 94.5 t-67.5 133t-37 178.5q-46 346 -46 576zM299 1978q143 16 391 23q0 -118 -18 -262q-175 -15 -365 -15zM305 770q0 -17 4 -53q506 0 635 12q43 3 61.5 24.5t18.5 67.5q0 89 -68 99q-84 12 -526 12q-62 0 -93.5 -42.5t-31.5 -119.5zM836 1751l4 250q134 0 389 -23 q-3 -70 -31 -256q-145 5 -362 29z" />
<glyph unicode="&#xcc;" horiz-adv-x="497" d="M-152 1806q48 130 132 211q164 -80 458 -346q-40 -65 -131 -145q-114 84 -243 162.5t-216 117.5zM47 1507q215 -3 408 -47q-60 -916 -111 -1468q-117 -40 -246 -51q0 720 -51 1566z" />
<glyph unicode="&#xcd;" horiz-adv-x="497" d="M47 1485q215 -3 408 -47q-60 -920 -111 -1469q-117 -40 -246 -51q0 721 -51 1567zM53 1686q305 269 477 331q92 -109 127 -164q-233 -125 -512 -327q-60 86 -92 160z" />
<glyph unicode="&#xce;" horiz-adv-x="497" d="M-145 1645q200 172 387 372q312 -283 403 -358q-97 -89 -170 -133q-49 32 -139 101t-111 85q-108 -103 -227 -186q-70 46 -143 119zM47 1485q215 -3 408 -47q-60 -920 -111 -1469q-117 -40 -246 -51q0 721 -51 1567z" />
<glyph unicode="&#xcf;" horiz-adv-x="497" d="M-217 1978q143 16 391 23q0 -118 -18 -262q-176 -15 -365 -15zM47 1591q215 -3 408 -47q-60 -916 -111 -1468q-117 -40 -246 -51q0 720 -51 1566zM319 1751l5 250q134 0 389 -23q-3 -70 -31 -256q-146 5 -363 29z" />
<glyph unicode="&#xd0;" horiz-adv-x="1691" d="M4 735h113l-17 719q275 36 601 67t473 31q212 0 320 -123.5t108 -359.5q0 -93 -6 -194t-18.5 -251.5t-16.5 -203.5q-35 -459 -369 -459q-195 0 -551 6t-504 13l-14 526h-100q-19 117 -19 229zM313 287q272 -15 437 -15q143 0 385 15q10 177 10 323q0 202 -23 396 q-426 -13 -784 -93q-3 -30 -7 -89t-7 -89q490 -6 497 -6q-13 -134 -59 -229q-3 0 -447 6q-2 -74 -2 -219z" />
<glyph unicode="&#xd1;" horiz-adv-x="1503" d="M39 1518q263 -37 313 -203q101 172 260 178q185 6 398 6q200 0 305.5 -107t105.5 -319q0 -595 -32 -1079q-106 -8 -330 -8q33 646 39 950q-68 2 -207 2q-233 0 -410 -8q-49 -356 -71 -977q-201 15 -326 51q-23 950 -45 1514zM344 1690q128 215 311 215q45 0 86 -17.5 t66 -38t54 -38t52 -17.5q33 0 65 28t71 93q88 -30 147 -94q-44 -101 -124 -166.5t-177 -65.5q-38 0 -77 16.5t-66.5 37t-61.5 37t-63 16.5q-56 0 -140 -121q-71 49 -143 115z" />
<glyph unicode="&#xd2;" horiz-adv-x="1607" d="M66 989q0 77 13.5 148.5t44.5 138t76.5 115.5t113.5 78.5t151 29.5q430 0 653 -12q198 -10 301 -126.5t103 -318.5q0 -48 -35 -622q-15 -229 -104 -340.5t-269 -124.5l-594 18q-182 6 -297 120t-139 341q-18 187 -18 555zM270 289q327 -23 797 -23q-11 435 -45 692 q-431 -7 -717 -49q-32 -259 -35 -620zM401 1806q48 131 131 211q167 -81 459 -346q-40 -65 -131 -145q-114 84 -243 162.5t-216 117.5z" />
<glyph unicode="&#xd3;" horiz-adv-x="1607" d="M66 989q0 77 13.5 148.5t44.5 138t76.5 115.5t113.5 78.5t151 29.5q430 0 653 -12q198 -10 301 -126.5t103 -318.5q0 -48 -35 -622q-15 -229 -104 -340.5t-269 -124.5l-594 18q-182 6 -297 120t-139 341q-18 187 -18 555zM270 289q327 -23 797 -23q-11 435 -45 692 q-431 -7 -717 -49q-32 -259 -35 -620zM610 1686q305 269 477 331q92 -109 127 -164q-233 -125 -512 -327q-60 86 -92 160z" />
<glyph unicode="&#xd4;" horiz-adv-x="1607" d="M66 989q0 77 13.5 148.5t44.5 138t76.5 115.5t113.5 78.5t151 29.5q430 0 653 -12q198 -10 301 -126.5t103 -318.5q0 -48 -35 -622q-15 -229 -104 -340.5t-269 -124.5l-594 18q-182 6 -297 120t-139 341q-18 187 -18 555zM270 289q327 -23 797 -23q-11 435 -45 692 q-431 -7 -717 -49q-32 -259 -35 -620zM408 1645q200 172 387 372q312 -283 403 -358q-97 -89 -170 -133q-49 32 -139 101t-111 85q-108 -103 -227 -186q-70 46 -143 119z" />
<glyph unicode="&#xd5;" horiz-adv-x="1607" d="M66 989q0 77 13.5 148.5t44.5 138t76.5 115.5t113.5 78.5t151 29.5q430 0 653 -12q198 -10 301 -126.5t103 -318.5q0 -48 -35 -622q-15 -229 -104 -340.5t-269 -124.5l-594 18q-182 6 -297 120t-139 341q-18 187 -18 555zM270 289q327 -23 797 -23q-11 435 -45 692 q-431 -7 -717 -49q-32 -259 -35 -620zM377 1690q128 215 311 215q45 0 86 -17.5t66 -38t54 -38t52 -17.5q33 0 64.5 28t70.5 93q90 -31 148 -94q-44 -101 -124 -166.5t-177 -65.5q-38 0 -77.5 16.5t-66.5 37t-61.5 37t-63.5 16.5q-55 0 -139 -121q-71 49 -143 115z" />
<glyph unicode="&#xd6;" horiz-adv-x="1607" d="M66 989q0 77 13.5 148.5t44.5 138t76.5 115.5t113.5 78.5t151 29.5q430 0 653 -12q198 -10 301 -126.5t103 -318.5q0 -48 -35 -622q-15 -229 -104 -340.5t-269 -124.5l-594 18q-182 6 -297 120t-139 341q-18 187 -18 555zM270 289q327 -23 797 -23q-11 435 -45 692 q-431 -7 -717 -49q-32 -259 -35 -620zM340 1978q143 16 391 23q0 -118 -18 -262q-176 -15 -365 -15zM877 1751l4 250q134 0 389 -23q-3 -70 -31 -256q-145 5 -362 29z" />
<glyph unicode="&#xd7;" horiz-adv-x="1120" d="M119 999q108 117 172 179q129 -160 276 -316q40 41 277 293q106 -96 178 -170q-174 -181 -293 -295q115 -141 266 -270q-32 -38 -137 -139q-130 109 -293 262q-114 -105 -301 -262q-74 65 -141 135q35 35 133 131t150 149q-23 24 -89 91.5t-111.5 115.5t-86.5 96z" />
<glyph unicode="&#xd8;" horiz-adv-x="1619" d="M66 989q0 77 13.5 148.5t44.5 138t76.5 115.5t113.5 78.5t151 29.5q394 0 717 -18l123 176q47 -16 145 -72q-11 -18 -45.5 -77t-54.5 -89q172 -108 172 -377q0 -48 -35 -622q-15 -233 -105.5 -349t-267.5 -116q-556 0 -616 22l-123 -217q-156 64 -242 117l117 191 q-43 35 -72.5 73t-50.5 96.5t-33 118.5t-18 163t-8 204t-2 266zM270 289l117 -6q245 383 434 669q-286 -10 -516 -43q-32 -259 -35 -620zM668 270q274 -4 399 -4q-12 409 -35 621q-31 -51 -364 -617z" />
<glyph unicode="&#xd9;" horiz-adv-x="1548" d="M33 1485q231 22 504 22q18 -635 63 -1124q158 -14 344 -14q125 0 191 4q62 580 69 1030q138 22 299 22q-41 -592 -84 -974q-11 -106 -23.5 -173.5t-34 -129t-54 -96t-81 -56.5t-116.5 -27q-218 -16 -582 -16q-177 0 -263.5 109.5t-114.5 328.5q-87 709 -117 1094z M436 1806q48 131 131 211q167 -81 459 -346q-40 -65 -131 -145q-114 84 -243 162.5t-216 117.5z" />
<glyph unicode="&#xda;" horiz-adv-x="1548" d="M33 1485q231 22 504 22q18 -635 63 -1124q158 -14 344 -14q125 0 191 4q62 580 69 1030q138 22 299 22q-41 -592 -84 -974q-11 -106 -23.5 -173.5t-34 -129t-54 -96t-81 -56.5t-116.5 -27q-218 -16 -582 -16q-177 0 -263.5 109.5t-114.5 328.5q-87 709 -117 1094z M623 1686q305 269 477 331q92 -109 127 -164q-233 -125 -512 -327q-60 86 -92 160z" />
<glyph unicode="&#xdb;" horiz-adv-x="1548" d="M33 1452q241 23 504 23q18 -636 63 -1125q158 -14 344 -14q125 0 191 4q62 580 69 1030q144 23 299 23q-41 -595 -84 -975q-11 -105 -23.5 -173t-34 -129t-54 -95.5t-80.5 -56.5t-117 -27q-232 -17 -582 -17q-177 0 -263.5 109.5t-114.5 328.5q-87 709 -117 1094z M463 1645q200 172 387 372q312 -283 403 -358q-97 -89 -170 -133q-49 32 -137 100.5t-112 85.5q-106 -101 -228 -186q-70 46 -143 119z" />
<glyph unicode="&#xdc;" horiz-adv-x="1548" d="M33 1485q231 22 504 22q18 -635 63 -1124q158 -14 344 -14q125 0 191 4q62 580 69 1030q138 22 299 22q-41 -592 -84 -974q-11 -106 -23.5 -173.5t-34 -129t-54 -96t-81 -56.5t-116.5 -27q-218 -16 -582 -16q-177 0 -263.5 109.5t-114.5 328.5q-87 709 -117 1094z M352 1978q143 16 391 23q0 -118 -18 -262q-175 -15 -365 -15zM889 1751l4 250q134 0 389 -23q-3 -70 -31 -256q-145 5 -362 29z" />
<glyph unicode="&#xdd;" horiz-adv-x="1327" d="M35 1575q200 -10 354 -31q42 -243 162 -684q213 322 352 672q159 0 400 -29q-217 -536 -512 -1095q0 -254 18 -435q-114 -22 -375 -34q4 331 23 505q-261 610 -422 1131zM469 1686q305 269 477 331q92 -109 127 -164q-233 -125 -512 -327q-60 86 -92 160z" />
<glyph unicode="&#xde;" horiz-adv-x="1454" d="M98 -39v1514q146 20 398 38q0 -135 6 -221q282 25 438 25q237 0 344 -172q42 -68 63.5 -169.5t22.5 -266.5q1 -173 -21 -264.5t-73 -149.5q-54 -61 -117 -94t-158 -33q-183 0 -520 33q-8 -35 -10 -209q-166 -24 -373 -31zM244 522q469 -28 643 -28q43 0 71.5 31t28.5 85 q0 60 -27 84.5t-86 24.5q-201 0 -616 -27q-12 -104 -14 -170z" />
<glyph unicode="&#xdf;" horiz-adv-x="2904" d="M70 942q0 256 115 398.5t327 150.5l831 29q0 -302 -18 -664q-174 26 -439.5 52t-342.5 26q-53 0 -80 -29.5t-27 -83.5q0 -90 70 -90q54 0 217 6t246 6q401 0 401 -331q0 -61 -6.5 -110t-26 -102t-52 -91.5t-88.5 -69.5t-132 -45q-115 -23 -251 -32t-413 -9q-184 0 -297 2 q12 278 37 405q160 -18 465.5 -40.5t384.5 -22.5q80 0 80 117q0 93 -110 96q-61 2 -217.5 5t-219.5 5q-229 6 -341.5 109t-112.5 313zM1509 915q0 241 108.5 373.5t317.5 155.5q464 49 865 55q-8 -337 -70 -659q-170 19 -399 35t-326 16q-64 0 -94.5 -26.5t-30.5 -82.5 q0 -96 68 -96q57 0 233 13.5t262 13.5q184 0 283.5 -80.5t99.5 -241.5q0 -53 -3.5 -93.5t-13 -87.5t-30 -83t-51.5 -70t-80 -58t-113 -38q-140 -31 -325 -45.5t-617 -21.5q-18 212 -18 405q153 -12 453 -24.5t407 -12.5q47 0 69.5 25t22.5 86q0 108 -114 108q-53 0 -207 -3 t-230 -3q-239 0 -353 106t-114 334z" />
<glyph unicode="&#xe0;" d="M70 408q0 194 113.5 298.5t338.5 104.5q323 0 512 -25q139 -16 187 -124q6 41 6 77q0 97 -56 135.5t-184 38.5q-160 0 -407 -15t-422 -38q-8 107 -8 238q0 170 20 329q379 33 807 33q230 0 339 -127t109 -401q0 -96 -2 -290t-2 -286q0 -248 54 -356q-18 -2 -60 -2 q-182 0 -244 115q-43 -87 -118.5 -122.5t-237.5 -35.5q-86 0 -182.5 9t-220.5 41t-195 83q-147 105 -147 320zM385 1806q48 131 131 211q167 -81 459 -346q-40 -65 -131 -145q-114 84 -243 162.5t-216 117.5zM492 453q0 -43 20 -64t63 -24q292 -23 582 -23q38 0 56 22.5 t18 75.5q0 106 -70 111q-127 11 -323 21t-283 10q-63 0 -63 -129z" />
<glyph unicode="&#xe1;" d="M70 408q0 194 113.5 298.5t338.5 104.5q323 0 512 -25q139 -16 187 -124q6 41 6 77q0 97 -56 135.5t-184 38.5q-160 0 -407 -15t-422 -38q-8 107 -8 238q0 170 20 329q379 33 807 33q230 0 339 -127t109 -401q0 -96 -2 -290t-2 -286q0 -248 54 -356q-18 -2 -60 -2 q-182 0 -244 115q-43 -87 -118.5 -122.5t-237.5 -35.5q-86 0 -182.5 9t-220.5 41t-195 83q-147 105 -147 320zM492 453q0 -43 20 -64t63 -24q292 -23 582 -23q38 0 56 22.5t18 75.5q0 106 -70 111q-127 11 -323 21t-283 10q-63 0 -63 -129zM571 1686q304 268 478 331 q92 -109 127 -164q-233 -125 -512 -327q-63 89 -93 160z" />
<glyph unicode="&#xe2;" d="M70 408q0 194 113.5 298.5t338.5 104.5q323 0 512 -25q139 -16 187 -124q6 41 6 77q0 97 -56 135.5t-184 38.5q-160 0 -407 -15t-422 -38q-8 107 -8 238q0 170 20 329q379 33 807 33q230 0 339 -127t109 -401q0 -96 -2 -290t-2 -286q0 -248 54 -356q-18 -2 -60 -2 q-182 0 -244 115q-43 -87 -118.5 -122.5t-237.5 -35.5q-86 0 -182.5 9t-220.5 41t-195 83q-147 105 -147 320zM369 1645q200 172 387 372q312 -283 403 -358q-97 -89 -170 -133q-49 32 -139 101t-111 85q-108 -103 -227 -186q-70 46 -143 119zM492 453q0 -43 20 -64t63 -24 q292 -23 582 -23q38 0 56 22.5t18 75.5q0 106 -70 111q-127 11 -323 21t-283 10q-63 0 -63 -129z" />
<glyph unicode="&#xe3;" d="M70 408q0 194 113.5 298.5t338.5 104.5q323 0 512 -25q139 -16 187 -124q6 41 6 77q0 97 -56 135.5t-184 38.5q-160 0 -407 -15t-422 -38q-8 107 -8 238q0 170 20 329q379 33 807 33q230 0 339 -127t109 -401q0 -96 -2 -290t-2 -286q0 -248 54 -356q-18 -2 -60 -2 q-182 0 -244 115q-43 -87 -118.5 -122.5t-237.5 -35.5q-86 0 -182.5 9t-220.5 41t-195 83q-147 105 -147 320zM360 1690q128 215 312 215q45 0 86 -17.5t66 -38t54 -38t52 -17.5q33 0 64.5 28t70.5 93q88 -30 147 -94q-44 -101 -124 -166.5t-177 -65.5q-38 0 -77 16.5 t-66.5 37t-61.5 37t-63 16.5q-55 0 -139 -121q-75 52 -144 115zM492 453q0 -43 20 -64t63 -24q292 -23 582 -23q38 0 56 22.5t18 75.5q0 106 -70 111q-127 11 -323 21t-283 10q-63 0 -63 -129z" />
<glyph unicode="&#xe4;" d="M70 408q0 194 113.5 298.5t338.5 104.5q323 0 512 -25q139 -16 187 -124q6 41 6 77q0 97 -56 135.5t-184 38.5q-160 0 -407 -15t-422 -38q-8 107 -8 238q0 170 20 329q379 33 807 33q230 0 339 -127t109 -401q0 -96 -2 -290t-2 -286q0 -248 54 -356q-18 -2 -60 -2 q-182 0 -244 115q-43 -87 -118.5 -122.5t-237.5 -35.5q-86 0 -182.5 9t-220.5 41t-195 83q-147 105 -147 320zM340 1978q143 16 391 23q0 -118 -18 -262q-176 -15 -365 -15zM492 453q0 -43 20 -64t63 -24q292 -23 582 -23q38 0 56 22.5t18 75.5q0 106 -70 111 q-127 11 -323 21t-283 10q-63 0 -63 -129zM877 1751l4 250q134 0 389 -23q-3 -70 -31 -256q-145 5 -362 29z" />
<glyph unicode="&#xe5;" d="M70 408q0 194 113.5 298.5t338.5 104.5q323 0 512 -25q139 -16 187 -124q6 41 6 77q0 97 -56 135.5t-184 38.5q-160 0 -407 -15t-422 -38q-8 107 -8 238q0 170 20 329q379 33 807 33q230 0 339 -127t109 -401q0 -96 -2 -290t-2 -286q0 -248 54 -356q-18 -2 -60 -2 q-182 0 -244 115q-43 -87 -118.5 -122.5t-237.5 -35.5q-86 0 -182.5 9t-220.5 41t-195 83q-147 105 -147 320zM492 453q0 -43 20 -64t63 -24q292 -23 582 -23q38 0 56 22.5t18 75.5q0 106 -70 111q-127 11 -323 21t-283 10q-63 0 -63 -129zM518 1755q0 130 78 196t190 66 q126 0 191 -60.5t65 -178.5q0 -70 -24 -121t-66 -78.5t-89 -40t-101 -12.5q-116 0 -180 63.5t-64 165.5zM664 1772q0 -109 108 -109q133 0 133 111q0 112 -119 112q-61 0 -91.5 -31t-30.5 -83z" />
<glyph unicode="&#xe6;" horiz-adv-x="2566" d="M70 408q0 194 113.5 298.5t338.5 104.5q323 0 512 -25q139 -16 187 -124q6 41 6 77q0 97 -56 135.5t-184 38.5q-160 0 -407 -15t-422 -38q-8 107 -8 238q0 170 20 329q379 33 807 33q163 0 270 -67q106 66 287 90t477 24q236 0 349.5 -135t113.5 -411q0 -476 -467 -476 q-111 0 -475 19q0 -187 119 -187q123 0 344.5 10.5t376.5 24.5q0 -193 -29 -368q-550 13 -836 45q-178 33 -264 139q-65 -87 -179 -150t-249 -63q-86 0 -182.5 9t-220.5 41t-195 83q-147 105 -147 320zM492 453q0 -43 20 -64t63 -24q292 -23 582 -23q38 0 56 22.5t18 75.5 q0 106 -70 111q-127 11 -323 21t-283 10q-63 0 -63 -129zM1327 770q0 -7 1 -16t2.5 -20t2.5 -17q459 -4 633 12q43 3 62.5 24t19.5 68q0 89 -70 99q-82 12 -526 12q-62 0 -93.5 -42.5t-31.5 -119.5z" />
<glyph unicode="&#xe7;" horiz-adv-x="1536" d="M70 1118q0 208 108 331.5t318 133.5q170 10 518 10q96 0 127 -2q152 -7 241 -74.5t113 -179.5q-124 -244 -260 -436q-45 108 -78 143q-355 35 -848 46q0 -300 41 -687q258 -6 510 -6q176 0 258 2q43 43 72 82q165 -106 270 -205q-29 -88 -108 -138.5t-213 -67.5 q-151 -21 -347.5 -39.5t-283.5 -18.5q-198 0 -299 114.5t-119 346.5q-20 283 -20 645zM616 -266q0 112 11 203q203 16 374 16q0 -87 -20 -193q-74 -105 -160 -200q-69 32 -110 82q8 13 34 46t37 54q-27 -3 -166 -8z" />
<glyph unicode="&#xe8;" horiz-adv-x="1527" d="M63 1065q0 81 19.5 144t54.5 109.5t95 79.5t130.5 54.5t171.5 33.5t207 16.5t248 4.5q236 0 349.5 -135t113.5 -411q0 -476 -467 -476q-113 0 -477 19q0 -187 121 -187q123 0 344.5 10.5t376.5 24.5q0 -205 -31 -368q-548 13 -834 45q-95 18 -161.5 54t-110 94.5 t-67.5 133t-37 178.5q-46 346 -46 576zM305 770q0 -17 4 -53q506 0 635 12q43 3 61.5 24.5t18.5 67.5q0 89 -68 99q-84 12 -526 12q-62 0 -93.5 -42.5t-31.5 -119.5zM362 1806q48 130 132 211q164 -80 458 -346q-40 -65 -131 -145q-114 84 -243 162.5t-216 117.5z" />
<glyph unicode="&#xe9;" horiz-adv-x="1527" d="M63 1065q0 81 19.5 144t54.5 109.5t95 79.5t130.5 54.5t171.5 33.5t207 16.5t248 4.5q236 0 349.5 -135t113.5 -411q0 -476 -467 -476q-113 0 -477 19q0 -187 121 -187q123 0 344.5 10.5t376.5 24.5q0 -205 -31 -368q-548 13 -834 45q-95 18 -161.5 54t-110 94.5 t-67.5 133t-37 178.5q-46 346 -46 576zM305 770q0 -17 4 -53q506 0 635 12q43 3 61.5 24.5t18.5 67.5q0 89 -68 99q-84 12 -526 12q-62 0 -93.5 -42.5t-31.5 -119.5zM569 1686q304 268 478 331q92 -109 127 -164q-233 -125 -512 -327q-63 89 -93 160z" />
<glyph unicode="&#xea;" horiz-adv-x="1527" d="M63 1065q0 81 19.5 144t54.5 109.5t95 79.5t130.5 54.5t171.5 33.5t207 16.5t248 4.5q236 0 349.5 -135t113.5 -411q0 -476 -467 -476q-113 0 -477 19q0 -187 121 -187q123 0 344.5 10.5t376.5 24.5q0 -205 -31 -368q-548 13 -834 45q-95 18 -161.5 54t-110 94.5 t-67.5 133t-37 178.5q-46 346 -46 576zM305 770q0 -17 4 -53q506 0 635 12q43 3 61.5 24.5t18.5 67.5q0 89 -68 99q-84 12 -526 12q-62 0 -93.5 -42.5t-31.5 -119.5zM389 1645q200 172 387 372q302 -274 404 -358q-97 -89 -170 -133q-49 32 -139 101t-111 85 q-106 -101 -228 -186q-70 46 -143 119z" />
<glyph unicode="&#xeb;" horiz-adv-x="1527" d="M63 1065q0 81 19.5 144t54.5 109.5t95 79.5t130.5 54.5t171.5 33.5t207 16.5t248 4.5q236 0 349.5 -135t113.5 -411q0 -476 -467 -476q-113 0 -477 19q0 -187 121 -187q123 0 344.5 10.5t376.5 24.5q0 -205 -31 -368q-548 13 -834 45q-95 18 -161.5 54t-110 94.5 t-67.5 133t-37 178.5q-46 346 -46 576zM299 1978q143 16 391 23q0 -118 -18 -262q-175 -15 -365 -15zM305 770q0 -17 4 -53q506 0 635 12q43 3 61.5 24.5t18.5 67.5q0 89 -68 99q-84 12 -526 12q-62 0 -93.5 -42.5t-31.5 -119.5zM836 1751l4 250q134 0 389 -23 q-3 -70 -31 -256q-145 5 -362 29z" />
<glyph unicode="&#xec;" horiz-adv-x="497" d="M-152 1806q48 130 132 211q164 -80 458 -346q-40 -65 -131 -145q-114 84 -243 162.5t-216 117.5zM47 1507q215 -3 408 -47q-60 -916 -111 -1468q-117 -40 -246 -51q0 720 -51 1566z" />
<glyph unicode="&#xed;" horiz-adv-x="497" d="M47 1485q215 -3 408 -47q-60 -920 -111 -1469q-117 -40 -246 -51q0 721 -51 1567zM53 1686q305 269 477 331q92 -109 127 -164q-233 -125 -512 -327q-60 86 -92 160z" />
<glyph unicode="&#xee;" horiz-adv-x="497" d="M-145 1645q200 172 387 372q312 -283 403 -358q-97 -89 -170 -133q-49 32 -139 101t-111 85q-108 -103 -227 -186q-70 46 -143 119zM47 1485q215 -3 408 -47q-60 -920 -111 -1469q-117 -40 -246 -51q0 721 -51 1567z" />
<glyph unicode="&#xef;" horiz-adv-x="497" d="M-217 1978q143 16 391 23q0 -118 -18 -262q-176 -15 -365 -15zM47 1591q215 -3 408 -47q-60 -916 -111 -1468q-117 -40 -246 -51q0 720 -51 1566zM319 1751l5 250q134 0 389 -23q-3 -70 -31 -256q-146 5 -363 29z" />
<glyph unicode="&#xf0;" horiz-adv-x="1691" d="M4 735h113l-17 719q275 36 601 67t473 31q212 0 320 -123.5t108 -359.5q0 -93 -6 -194t-18.5 -251.5t-16.5 -203.5q-35 -459 -369 -459q-195 0 -551 6t-504 13l-14 526h-100q-19 117 -19 229zM313 287q272 -15 437 -15q143 0 385 15q10 177 10 323q0 202 -23 396 q-426 -13 -784 -93q-3 -30 -7 -89t-7 -89q490 -6 497 -6q-13 -134 -59 -229q-3 0 -447 6q-2 -74 -2 -219z" />
<glyph unicode="&#xf1;" horiz-adv-x="1503" d="M39 1518q263 -37 313 -203q101 172 260 178q185 6 398 6q200 0 305.5 -107t105.5 -319q0 -595 -32 -1079q-106 -8 -330 -8q33 646 39 950q-68 2 -207 2q-233 0 -410 -8q-49 -356 -71 -977q-201 15 -326 51q-23 950 -45 1514zM344 1690q128 215 311 215q45 0 86 -17.5 t66 -38t54 -38t52 -17.5q33 0 65 28t71 93q88 -30 147 -94q-44 -101 -124 -166.5t-177 -65.5q-38 0 -77 16.5t-66.5 37t-61.5 37t-63 16.5q-56 0 -140 -121q-71 49 -143 115z" />
<glyph unicode="&#xf2;" horiz-adv-x="1607" d="M66 989q0 77 13.5 148.5t44.5 138t76.5 115.5t113.5 78.5t151 29.5q430 0 653 -12q198 -10 301 -126.5t103 -318.5q0 -48 -35 -622q-15 -229 -104 -340.5t-269 -124.5l-594 18q-182 6 -297 120t-139 341q-18 187 -18 555zM270 289q327 -23 797 -23q-11 435 -45 692 q-431 -7 -717 -49q-32 -259 -35 -620zM401 1806q48 131 131 211q167 -81 459 -346q-40 -65 -131 -145q-114 84 -243 162.5t-216 117.5z" />
<glyph unicode="&#xf3;" horiz-adv-x="1607" d="M66 989q0 77 13.5 148.5t44.5 138t76.5 115.5t113.5 78.5t151 29.5q430 0 653 -12q198 -10 301 -126.5t103 -318.5q0 -48 -35 -622q-15 -229 -104 -340.5t-269 -124.5l-594 18q-182 6 -297 120t-139 341q-18 187 -18 555zM270 289q327 -23 797 -23q-11 435 -45 692 q-431 -7 -717 -49q-32 -259 -35 -620zM610 1686q305 269 477 331q92 -109 127 -164q-233 -125 -512 -327q-60 86 -92 160z" />
<glyph unicode="&#xf4;" horiz-adv-x="1607" d="M66 989q0 77 13.5 148.5t44.5 138t76.5 115.5t113.5 78.5t151 29.5q430 0 653 -12q198 -10 301 -126.5t103 -318.5q0 -48 -35 -622q-15 -229 -104 -340.5t-269 -124.5l-594 18q-182 6 -297 120t-139 341q-18 187 -18 555zM270 289q327 -23 797 -23q-11 435 -45 692 q-431 -7 -717 -49q-32 -259 -35 -620zM408 1645q200 172 387 372q312 -283 403 -358q-97 -89 -170 -133q-49 32 -139 101t-111 85q-108 -103 -227 -186q-70 46 -143 119z" />
<glyph unicode="&#xf5;" horiz-adv-x="1607" d="M66 989q0 77 13.5 148.5t44.5 138t76.5 115.5t113.5 78.5t151 29.5q430 0 653 -12q198 -10 301 -126.5t103 -318.5q0 -48 -35 -622q-15 -229 -104 -340.5t-269 -124.5l-594 18q-182 6 -297 120t-139 341q-18 187 -18 555zM270 289q327 -23 797 -23q-11 435 -45 692 q-431 -7 -717 -49q-32 -259 -35 -620zM377 1690q128 215 311 215q45 0 86 -17.5t66 -38t54 -38t52 -17.5q33 0 64.5 28t70.5 93q90 -31 148 -94q-44 -101 -124 -166.5t-177 -65.5q-38 0 -77.5 16.5t-66.5 37t-61.5 37t-63.5 16.5q-55 0 -139 -121q-71 49 -143 115z" />
<glyph unicode="&#xf6;" horiz-adv-x="1607" d="M66 989q0 77 13.5 148.5t44.5 138t76.5 115.5t113.5 78.5t151 29.5q430 0 653 -12q198 -10 301 -126.5t103 -318.5q0 -48 -35 -622q-15 -229 -104 -340.5t-269 -124.5l-594 18q-182 6 -297 120t-139 341q-18 187 -18 555zM270 289q327 -23 797 -23q-11 435 -45 692 q-431 -7 -717 -49q-32 -259 -35 -620zM340 1978q143 16 391 23q0 -118 -18 -262q-176 -15 -365 -15zM877 1751l4 250q134 0 389 -23q-3 -70 -31 -256q-145 5 -362 29z" />
<glyph unicode="&#xf7;" horiz-adv-x="1120" d="M39 829h1032l10 -196l-1030 -41zM358 354q196 42 383 56q0 -175 7 -275q-183 -32 -355 -43q-32 139 -35 262zM365 1323q143 16 391 23q0 -111 -19 -263q-164 -14 -364 -14z" />
<glyph unicode="&#xf8;" horiz-adv-x="1619" d="M66 989q0 77 13.5 148.5t44.5 138t76.5 115.5t113.5 78.5t151 29.5q394 0 717 -18l123 176q47 -16 145 -72q-11 -18 -45.5 -77t-54.5 -89q172 -108 172 -377q0 -48 -35 -622q-15 -233 -105.5 -349t-267.5 -116q-556 0 -616 22l-123 -217q-156 64 -242 117l117 191 q-43 35 -72.5 73t-50.5 96.5t-33 118.5t-18 163t-8 204t-2 266zM270 289l117 -6q245 383 434 669q-286 -10 -516 -43q-32 -259 -35 -620zM668 270q274 -4 399 -4q-12 409 -35 621q-31 -51 -364 -617z" />
<glyph unicode="&#xf9;" horiz-adv-x="1548" d="M33 1485q231 22 504 22q18 -635 63 -1124q158 -14 344 -14q125 0 191 4q62 580 69 1030q138 22 299 22q-41 -592 -84 -974q-11 -106 -23.5 -173.5t-34 -129t-54 -96t-81 -56.5t-116.5 -27q-218 -16 -582 -16q-177 0 -263.5 109.5t-114.5 328.5q-87 709 -117 1094z M436 1806q48 131 131 211q167 -81 459 -346q-40 -65 -131 -145q-114 84 -243 162.5t-216 117.5z" />
<glyph unicode="&#xfa;" horiz-adv-x="1548" d="M33 1485q231 22 504 22q18 -635 63 -1124q158 -14 344 -14q125 0 191 4q62 580 69 1030q138 22 299 22q-41 -592 -84 -974q-11 -106 -23.5 -173.5t-34 -129t-54 -96t-81 -56.5t-116.5 -27q-218 -16 -582 -16q-177 0 -263.5 109.5t-114.5 328.5q-87 709 -117 1094z M623 1686q305 269 477 331q92 -109 127 -164q-233 -125 -512 -327q-60 86 -92 160z" />
<glyph unicode="&#xfb;" horiz-adv-x="1548" d="M33 1452q241 23 504 23q18 -636 63 -1125q158 -14 344 -14q125 0 191 4q62 580 69 1030q144 23 299 23q-41 -595 -84 -975q-11 -105 -23.5 -173t-34 -129t-54 -95.5t-80.5 -56.5t-117 -27q-232 -17 -582 -17q-177 0 -263.5 109.5t-114.5 328.5q-87 709 -117 1094z M463 1645q200 172 387 372q312 -283 403 -358q-97 -89 -170 -133q-49 32 -137 100.5t-112 85.5q-106 -101 -228 -186q-70 46 -143 119z" />
<glyph unicode="&#xfc;" horiz-adv-x="1548" d="M33 1485q231 22 504 22q18 -635 63 -1124q158 -14 344 -14q125 0 191 4q62 580 69 1030q138 22 299 22q-41 -592 -84 -974q-11 -106 -23.5 -173.5t-34 -129t-54 -96t-81 -56.5t-116.5 -27q-218 -16 -582 -16q-177 0 -263.5 109.5t-114.5 328.5q-87 709 -117 1094z M352 1978q143 16 391 23q0 -118 -18 -262q-175 -15 -365 -15zM889 1751l4 250q134 0 389 -23q-3 -70 -31 -256q-145 5 -362 29z" />
<glyph unicode="&#xfd;" horiz-adv-x="1327" d="M35 1575q200 -10 354 -31q42 -243 162 -684q213 322 352 672q159 0 400 -29q-217 -536 -512 -1095q0 -254 18 -435q-114 -22 -375 -34q4 331 23 505q-261 610 -422 1131zM469 1686q305 269 477 331q92 -109 127 -164q-233 -125 -512 -327q-60 86 -92 160z" />
<glyph unicode="&#xfe;" horiz-adv-x="1454" d="M98 -39v1514q146 20 398 38q0 -135 6 -221q282 25 438 25q237 0 344 -172q42 -68 63.5 -169.5t22.5 -266.5q1 -173 -21 -264.5t-73 -149.5q-54 -61 -117 -94t-158 -33q-183 0 -520 33q-8 -35 -10 -209q-166 -24 -373 -31zM244 522q469 -28 643 -28q43 0 71.5 31t28.5 85 q0 60 -27 84.5t-86 24.5q-201 0 -616 -27q-12 -104 -14 -170z" />
<glyph unicode="&#xff;" horiz-adv-x="1327" d="M35 1575q200 -10 354 -31q42 -243 162 -684q213 322 352 672q159 0 400 -29q-217 -536 -512 -1095q0 -254 18 -435q-114 -22 -375 -34q4 331 23 505q-261 610 -422 1131zM199 1978q143 16 391 23q0 -110 -19 -262q-176 -15 -364 -15zM735 1751l4 250q134 0 389 -23 q-4 -80 -30 -256q-146 5 -363 29z" />
<glyph unicode="&#x152;" horiz-adv-x="2594" d="M66 989q0 77 13.5 148.5t44.5 138t76.5 115.5t113.5 78.5t151 29.5q430 0 653 -12q123 -6 221 -62q109 47 277 64.5t424 17.5q236 0 349.5 -135t113.5 -411q0 -476 -467 -476q-113 0 -477 19q0 -187 118 -187q124 0 346 10.5t377 24.5q0 -210 -30 -368q-548 13 -834 45 q-96 16 -154 51q-91 -110 -268 -125l-594 18q-181 5 -296.5 118.5t-139.5 342.5q-18 187 -18 555zM270 289q327 -23 797 -23q-11 435 -45 692q-431 -7 -717 -49q-32 -259 -35 -620zM1356 770q0 -17 4 -53q506 0 635 12q43 3 61.5 24.5t18.5 67.5q0 89 -68 99q-84 12 -526 12 q-62 0 -93.5 -42.5t-31.5 -119.5z" />
<glyph unicode="&#x153;" horiz-adv-x="2594" d="M66 989q0 77 13.5 148.5t44.5 138t76.5 115.5t113.5 78.5t151 29.5q430 0 653 -12q123 -6 221 -62q109 47 277 64.5t424 17.5q236 0 349.5 -135t113.5 -411q0 -476 -467 -476q-113 0 -477 19q0 -187 118 -187q124 0 346 10.5t377 24.5q0 -210 -30 -368q-548 13 -834 45 q-96 16 -154 51q-91 -110 -268 -125l-594 18q-181 5 -296.5 118.5t-139.5 342.5q-18 187 -18 555zM270 289q327 -23 797 -23q-11 435 -45 692q-431 -7 -717 -49q-32 -259 -35 -620zM1356 770q0 -17 4 -53q506 0 635 12q43 3 61.5 24.5t18.5 67.5q0 89 -68 99q-84 12 -526 12 q-62 0 -93.5 -42.5t-31.5 -119.5z" />
<glyph unicode="&#x178;" horiz-adv-x="1327" d="M35 1575q200 -10 354 -31q42 -243 162 -684q213 322 352 672q159 0 400 -29q-217 -536 -512 -1095q0 -254 18 -435q-114 -22 -375 -34q4 331 23 505q-261 610 -422 1131zM199 1978q143 16 391 23q0 -110 -19 -262q-176 -15 -364 -15zM735 1751l4 250q134 0 389 -23 q-4 -80 -30 -256q-146 5 -363 29z" />
<glyph unicode="&#x2c6;" horiz-adv-x="976" d="M94 1645q200 172 387 372q302 -274 404 -358q-97 -89 -170 -133q-49 32 -139 101t-111 85q-108 -103 -227 -186q-73 48 -144 119z" />
<glyph unicode="&#x2dc;" horiz-adv-x="960" d="M61 1690q128 215 312 215q45 0 86 -17.5t66 -38t54 -38t52 -17.5q33 0 64.5 28t70.5 93q88 -30 147 -94q-44 -101 -124 -166.5t-177 -65.5q-38 0 -77 16.5t-66.5 37t-61.5 37t-63 16.5q-55 0 -139 -121q-75 52 -144 115z" />
<glyph unicode="&#x2000;" horiz-adv-x="1008" />
<glyph unicode="&#x2001;" horiz-adv-x="2017" />
<glyph unicode="&#x2002;" horiz-adv-x="1008" />
<glyph unicode="&#x2003;" horiz-adv-x="2017" />
<glyph unicode="&#x2004;" horiz-adv-x="672" />
<glyph unicode="&#x2005;" horiz-adv-x="504" />
<glyph unicode="&#x2006;" horiz-adv-x="336" />
<glyph unicode="&#x2007;" horiz-adv-x="336" />
<glyph unicode="&#x2008;" horiz-adv-x="252" />
<glyph unicode="&#x2009;" horiz-adv-x="403" />
<glyph unicode="&#x200a;" horiz-adv-x="112" />
<glyph unicode="&#x2010;" horiz-adv-x="749" d="M70 877q383 0 604 -11q-9 -198 -43 -354q-180 8 -545 8q-16 153 -16 357z" />
<glyph unicode="&#x2011;" horiz-adv-x="749" d="M70 877q383 0 604 -11q-9 -198 -43 -354q-180 8 -545 8q-16 153 -16 357z" />
<glyph unicode="&#x2012;" horiz-adv-x="749" d="M70 877q383 0 604 -11q-9 -198 -43 -354q-180 8 -545 8q-16 153 -16 357z" />
<glyph unicode="&#x2013;" horiz-adv-x="1175" d="M70 877q811 0 1032 -11q-9 -203 -45 -354q-180 8 -971 8q-16 153 -16 357z" />
<glyph unicode="&#x2014;" horiz-adv-x="1816" d="M70 877q1452 0 1673 -11q-9 -187 -45 -354q-180 8 -1612 8q-16 153 -16 357z" />
<glyph unicode="&#x2018;" horiz-adv-x="516" d="M45 1085q0 94 21 226q112 160 239 305q60 -41 111 -105q-79 -96 -127 -178q40 5 184 10q0 -145 -12 -239q-264 -19 -416 -19z" />
<glyph unicode="&#x2019;" horiz-adv-x="516" d="M45 1315q0 145 12 239q264 19 416 19q0 -99 -20 -225q-112 -159 -240 -306q-52 36 -111 105q86 105 129 178q-41 -5 -186 -10z" />
<glyph unicode="&#x201a;" horiz-adv-x="516" d="M45 -23q0 147 12 238q243 21 416 21q0 -102 -20 -228q-108 -154 -240 -305q-61 45 -111 104q84 103 129 181q-52 -7 -186 -11z" />
<glyph unicode="&#x201c;" horiz-adv-x="1034" d="M59 1155q0 50 9 156q113 181 221 317q54 -33 117 -96q-82 -118 -117 -186q27 5 57 8.5t70 6.5t57 5q6 -153 6 -154q0 -57 -4 -86q-258 -34 -414 -43q-2 25 -2 72zM553 1061q5 103 31 227q100 140 247 297q60 -50 107 -108q-83 -97 -133 -174q118 4 186 4 q-4 -149 -20 -240q-204 -8 -303 -8q-76 0 -115 2z" />
<glyph unicode="&#x201d;" horiz-adv-x="1034" d="M45 1327q11 155 27 238q59 2 174 2q120 0 243 -6q-4 -95 -34 -224q-116 -147 -256 -293q-43 35 -105 111q94 106 139 172q-54 -4 -75 -4q-39 0 -113 4zM563 1405q0 82 10 141q293 25 414 27q0 -100 -18 -242q-95 -148 -234 -311q-50 35 -114 102q74 90 127 183 q-34 -6 -183 -15q0 17 -1 56t-1 59z" />
<glyph unicode="&#x201e;" horiz-adv-x="1034" d="M45 -23q0 147 12 238q243 21 416 21q0 -102 -20 -228q-108 -154 -240 -305q-61 45 -111 104q84 103 129 181q-52 -7 -186 -11zM561 -23q0 147 12 238q243 21 416 21q0 -102 -20 -228q-108 -154 -240 -305q-61 45 -111 104q88 107 130 181q-52 -7 -187 -11z" />
<glyph unicode="&#x2022;" horiz-adv-x="1021" d="M72 520l16 336q0 4 -1 11t-1 10q0 193 248 227l338 16q105 -5 189.5 -67.5t84.5 -159.5l-12 -381q-6 -112 -70 -168.5t-178 -56.5q-5 0 -15 1t-14 1l-319 18q-254 15 -266 213z" />
<glyph unicode="&#x2026;" horiz-adv-x="2248" d="M127 211q158 15 389 22q0 -116 -18 -264q-172 -12 -363 -12zM930 6l20 258q145 0 363 -10q-7 -110 -41 -260q-243 4 -342 12zM1735 164q184 40 381 55q0 -186 6 -274q-217 -35 -355 -43q-29 140 -32 262z" />
<glyph unicode="&#x202f;" horiz-adv-x="403" />
<glyph unicode="&#x2039;" horiz-adv-x="530" d="M18 709q285 311 361 403q91 -104 131 -168q-24 -39 -52 -77t-74 -96t-60 -77q115 -120 186 -229q-42 -68 -117 -143q-173 197 -375 387z" />
<glyph unicode="&#x203a;" horiz-adv-x="530" d="M18 492q31 49 100.5 137t86.5 112q-114 120 -187 228q46 71 119 143q168 -195 373 -387q-255 -278 -358 -403q-92 100 -134 170z" />
<glyph unicode="&#x205f;" horiz-adv-x="504" />
<glyph unicode="&#x20ac;" horiz-adv-x="1542" d="M8 856l78 -4q-20 140 -20 221q0 187 108.5 299.5t321.5 130.5q163 15 422 15q127 0 223 -7q153 -12 241.5 -78t112.5 -176q-93 -232 -260 -436q-30 99 -78 144q-299 47 -674 47q-119 0 -176 -2q3 -84 12 -148l510 12q0 -121 -47 -210l-526 16q0 -51 8 -145l479 18 q-9 -71 -47 -170l-352 8l4 -106q51 -2 156 -2q327 0 614 41q49 36 72 77q128 -66 270 -204q-27 -88 -103 -139.5t-208 -75.5q-384 -72 -576 -72q-217 0 -333.5 128t-116.5 353l-76 -6q-18 85 -18 168l86 -6q-13 93 -13 139l-69 -4q-22 69 -25 174z" />
<glyph unicode="&#x2122;" horiz-adv-x="2189" d="M70 1509q337 31 821 31q-9 -217 -39 -385q-15 1 -42 2.5t-49 2.5t-42 1q-76 0 -139 -14q-21 -247 -21 -604q-89 -18 -180 -27q-22 347 -25 653q-150 -7 -243 -22q-29 160 -41 362zM969 1505q152 -3 205 -112q12 58 57.5 92t120.5 37q153 6 471 6q125 0 190.5 -76 t65.5 -221q0 -424 -13 -719q-166 3 -284 16q8 222 8 330q0 196 -14 328q-115 -3 -228 -21q-23 -298 -26 -641q-64 0 -158 8q-10 232 -10 426q0 158 4 236q-118 0 -215 -20q2 -47 2 -140q0 -234 -19 -491q-52 -12 -114 -15q-20 657 -43 977z" />
<glyph unicode="&#xe000;" horiz-adv-x="1546" d="M0 0v1546h1546v-1546h-1546z" />
<glyph unicode="&#xfb01;" horiz-adv-x="1810" d="M72 -12q26 825 94 1448q461 79 1083 125q-14 -323 -75 -639q-427 -3 -875 -50q-8 -47 -8 -147q540 -35 928 -45q-20 -92 -72 -191q-461 8 -731 23q-29 -255 -35 -541q-129 0 -309 17zM1362 1483q214 0 407 -41q-11 -943 -65 -1493q-26 -10 -60 -17t-59.5 -9.5t-69 -6.5 t-65.5 -6q-3 774 -88 1573z" />
<glyph unicode="&#xfb02;" horiz-adv-x="2551" d="M84 602q0 432 14 758q439 105 1010 182q82 -338 100 -620q-405 -27 -938 -113q-8 -52 -8 -147q235 -5 281 -5q272 0 612 19q27 -106 27 -213q-552 -23 -779 -23q-6 -144 -6 -266q0 -158 4 -240q-147 -40 -307 -40q-10 388 -10 708zM1346 1544q260 39 571 39 q-77 -649 -176 -1231q427 0 749 51q29 -170 29 -303q0 -14 -1 -44.5t-1 -47.5q-565 -35 -1143 -35q-4 988 -28 1571z" />
</font>
</defs>
</svg>
